<svg width="44.88mm" height="4.0969mm" version="1.1" viewBox="0 0 44.88 4.0969" xmlns="http://www.w3.org/2000/svg">
 <g transform="translate(-23.783 -28.71)">
  <g stroke-width=".26458">
   <path d="m25.929 30.674v0.18604h-1.7487q0.02481 0.39274 0.23564 0.59945 0.21291 0.20464 0.59118 0.20464 0.21911 0 0.42375-0.05374 0.2067-0.05374 0.40928-0.16123v0.35967q-0.20464 0.08682-0.41961 0.13229-0.21497 0.04547-0.43615 0.04547-0.55397 0-0.8785-0.32246-0.32246-0.32246-0.32246-0.8723 0-0.56844 0.30592-0.90124 0.30799-0.33486 0.82889-0.33486 0.46716 0 0.73794 0.30179 0.27285 0.29972 0.27285 0.81649zm-0.38034-0.11162q-0.0041-0.31213-0.1757-0.49816-0.1695-0.18604-0.45062-0.18604-0.31833 0-0.51056 0.17983-0.19017 0.17983-0.21911 0.50643z"/>
   <path d="m27.725 28.71v0.31626h-0.3638q-0.20464 0-0.28525 0.08268-0.07855 0.08268-0.07855 0.29766v0.20464h0.62632v0.29559h-0.62632v2.0195h-0.3824v-2.0195h-0.3638v-0.29559h0.3638v-0.16123q0-0.38654 0.17983-0.56224 0.17983-0.17777 0.57051-0.17777z"/>
   <path d="m28.004 31.013v-1.4015h0.38034v1.387q0 0.32866 0.12816 0.49403 0.12816 0.1633 0.38447 0.1633 0.30799 0 0.48576-0.19637 0.17983-0.19637 0.17983-0.53537v-1.3126h0.38034v2.3151h-0.38034v-0.35553q-0.13849 0.21084-0.32246 0.31419-0.1819 0.10129-0.42375 0.10129-0.39894 0-0.60565-0.24805-0.20671-0.24805-0.20671-0.72554z"/>
   <path d="m32.068 29.967q-0.06408-0.03721-0.14056-0.05374-0.07441-0.0186-0.16536-0.0186-0.32246 0-0.49609 0.21084-0.17157 0.20877-0.17157 0.60151v1.2196h-0.3824v-2.3151h0.3824v0.35967q0.11989-0.21084 0.31212-0.31213 0.19224-0.10335 0.46716-0.10335 0.03927 0 0.08682 0.0062 0.04754 0.0041 0.10542 0.01447z"/>
   <path d="m32.467 28.71h0.38034v3.2163h-0.38034z"/>
   <path d="m34.695 30.763q-0.46095 0-0.63872 0.10542-0.17777 0.10542-0.17777 0.35967 0 0.20257 0.13229 0.32246 0.13436 0.11782 0.3638 0.11782 0.31626 0 0.50643-0.22324 0.19224-0.22531 0.19224-0.59738v-0.08475zm0.75861-0.1571v1.3208h-0.38034v-0.3514q-0.13022 0.21084-0.32453 0.31212-0.1943 0.09922-0.47542 0.09922-0.35553 0-0.56637-0.19844-0.20877-0.2005-0.20877-0.53537 0-0.39067 0.26045-0.58911 0.26252-0.19844 0.78135-0.19844h0.5333v-0.03721q0-0.26252-0.17363-0.40514-0.17156-0.14469-0.48369-0.14469-0.19844 0-0.38654 0.04754t-0.36174 0.14263v-0.3514q0.20877-0.08061 0.40514-0.11989 0.19637-0.04134 0.3824-0.04134 0.5023 0 0.75034 0.26045 0.24805 0.26045 0.24805 0.78962z"/>
   <path d="m38.162 30.529v1.3973h-0.38034v-1.3849q0-0.32866-0.12816-0.49196-0.12816-0.1633-0.38447-0.1633-0.30799 0-0.48576 0.19637-0.17777 0.19637-0.17777 0.53537v1.3084h-0.38241v-2.3151h0.38241v0.35967q0.13642-0.20877 0.32039-0.31213 0.18604-0.10335 0.42788-0.10335 0.39894 0 0.60358 0.24805 0.20464 0.24598 0.20464 0.72554z"/>
   <path d="m40.723 30.056q0.14263-0.25632 0.34106-0.37827 0.19844-0.12196 0.46716-0.12196 0.36173 0 0.5581 0.25425 0.19637 0.25218 0.19637 0.71934v1.3973h-0.3824v-1.3849q0-0.3328-0.11782-0.49403-0.11782-0.16123-0.35967-0.16123-0.29559 0-0.46716 0.19637-0.17156 0.19637-0.17156 0.53537v1.3084h-0.38241v-1.3849q0-0.33486-0.11782-0.49403-0.11782-0.16123-0.3638-0.16123-0.29146 0-0.46302 0.19844-0.17157 0.19637-0.17157 0.5333v1.3084h-0.3824v-2.3151h0.3824v0.35967q0.13022-0.21291 0.31213-0.31419 0.1819-0.10128 0.43201-0.10128 0.25218 0 0.42788 0.12816 0.17777 0.12816 0.26252 0.37207z"/>
   <path d="m44.22 30.816q0 0.29559 0.14676 0.46509 0.14676 0.16743 0.40308 0.16743 0.25425 0 0.39894-0.1695 0.14676-0.1695 0.14676-0.46302 0-0.28939-0.14883-0.45889-0.14883-0.17157-0.40101-0.17157-0.25011 0-0.39894 0.1695-0.14676 0.1695-0.14676 0.46095zm1.1265 0.61805q-0.12402 0.15916-0.28525 0.23564-0.15916 0.07441-0.37207 0.07441-0.35553 0-0.57878-0.25632-0.22118-0.25838-0.22118-0.67179 0-0.41341 0.22324-0.67179t0.57671-0.25838q0.21291 0 0.37414 0.07855 0.16123 0.07648 0.28319 0.23358v-0.27078h0.29559v1.5214q0.30179-0.04547 0.47129-0.27492 0.17156-0.23151 0.17156-0.59738 0-0.22118-0.06615-0.41548-0.06408-0.1943-0.19637-0.35967-0.21497-0.27078-0.52503-0.41341-0.30799-0.14469-0.67179-0.14469-0.25425 0-0.48782 0.06821-0.23358 0.06615-0.43202 0.19844-0.32453 0.21084-0.5085 0.55397-0.1819 0.34106-0.1819 0.74001 0 0.32866 0.11782 0.61598 0.11989 0.28732 0.3452 0.50643 0.21704 0.21497 0.5023 0.3266 0.28525 0.11369 0.60978 0.11369 0.26665 0 0.52296-0.09095 0.25838-0.08888 0.47336-0.25632l0.18604 0.22944q-0.25838 0.2005-0.56431 0.30592-0.30386 0.10749-0.61805 0.10749-0.3824 0-0.7214-0.13643-0.339-0.13436-0.60358-0.39274-0.26458-0.25838-0.40308-0.59738-0.13849-0.34106-0.13849-0.73174 0-0.3762 0.14056-0.71727 0.14056-0.34106 0.40101-0.59945 0.26665-0.26252 0.61598-0.40101 0.34933-0.14056 0.74001-0.14056 0.43822 0 0.81235 0.17983 0.3762 0.17983 0.63045 0.51056 0.15503 0.20257 0.23564 0.44028 0.08268 0.23771 0.08268 0.49196 0 0.54364-0.32866 0.85783-0.32866 0.31419-0.90744 0.3266z"/>
   <path d="m48.801 30.742q0-0.41341-0.17157-0.64079-0.1695-0.22738-0.47749-0.22738-0.30592 0-0.47749 0.22738-0.1695 0.22738-0.1695 0.64079 0 0.41134 0.1695 0.63872 0.17157 0.22738 0.47749 0.22738 0.30799 0 0.47749-0.22738 0.17157-0.22738 0.17157-0.63872zm0.38034 0.8971q0 0.59118-0.26252 0.8785-0.26252 0.28939-0.80408 0.28939-0.2005 0-0.37827-0.03101-0.17777-0.02894-0.3452-0.09095v-0.37q0.16743 0.09095 0.33073 0.13436 0.1633 0.04341 0.3328 0.04341 0.37414 0 0.56017-0.19637 0.18604-0.1943 0.18604-0.58911v-0.1881q-0.11782 0.20464-0.30179 0.30592-0.18397 0.10128-0.44028 0.10128-0.42581 0-0.68626-0.32453-0.26045-0.32453-0.26045-0.8599 0-0.53743 0.26045-0.86196 0.26045-0.32453 0.68626-0.32453 0.25632 0 0.44028 0.10128 0.18397 0.10129 0.30179 0.30592v-0.3514h0.38034z"/>
   <path d="m51.767 30.056q0.14263-0.25632 0.34106-0.37827 0.19844-0.12196 0.46716-0.12196 0.36174 0 0.5581 0.25425 0.19637 0.25218 0.19637 0.71934v1.3973h-0.3824v-1.3849q0-0.3328-0.11782-0.49403-0.11782-0.16123-0.35967-0.16123-0.29559 0-0.46715 0.19637-0.17157 0.19637-0.17157 0.53537v1.3084h-0.3824v-1.3849q0-0.33486-0.11782-0.49403-0.11782-0.16123-0.3638-0.16123-0.29146 0-0.46302 0.19844-0.17156 0.19637-0.17156 0.5333v1.3084h-0.38241v-2.3151h0.38241v0.35967q0.13022-0.21291 0.31212-0.31419 0.1819-0.10128 0.43202-0.10128 0.25218 0 0.42788 0.12816 0.17777 0.12816 0.26252 0.37207z"/>
   <path d="m55.141 30.763q-0.46095 0-0.63872 0.10542-0.17777 0.10542-0.17777 0.35967 0 0.20257 0.13229 0.32246 0.13436 0.11782 0.3638 0.11782 0.31626 0 0.50643-0.22324 0.19224-0.22531 0.19224-0.59738v-0.08475zm0.75861-0.1571v1.3208h-0.38034v-0.3514q-0.13022 0.21084-0.32453 0.31212-0.1943 0.09922-0.47542 0.09922-0.35553 0-0.56637-0.19844-0.20877-0.2005-0.20877-0.53537 0-0.39067 0.26045-0.58911 0.26252-0.19844 0.78135-0.19844h0.5333v-0.03721q0-0.26252-0.17363-0.40514-0.17157-0.14469-0.48369-0.14469-0.19844 0-0.38654 0.04754t-0.36174 0.14263v-0.3514q0.20877-0.08061 0.40514-0.11989 0.19637-0.04134 0.3824-0.04134 0.5023 0 0.75034 0.26045 0.24805 0.26045 0.24805 0.78962z"/>
   <path d="m56.683 29.611h0.38034v2.3151h-0.38034zm0-0.90124h0.38034v0.48162h-0.38034z"/>
   <path d="m57.859 28.71h0.38034v3.2163h-0.38034z"/>
   <path d="m59.089 31.401h0.43615v0.52503h-0.43615z"/>
   <path d="m62.047 29.7v0.35553q-0.16123-0.08888-0.32453-0.13229-0.16123-0.04547-0.32659-0.04547-0.37 0-0.57464 0.23564-0.20464 0.23358-0.20464 0.65732 0 0.42375 0.20464 0.65939 0.20464 0.23358 0.57464 0.23358 0.16536 0 0.32659-0.04341 0.1633-0.04547 0.32453-0.13436v0.3514q-0.15916 0.07441-0.33073 0.11162-0.1695 0.03721-0.36174 0.03721-0.52296 0-0.83096-0.32866t-0.30799-0.88677q0-0.56637 0.31006-0.8909 0.31213-0.32453 0.85369-0.32453 0.1757 0 0.34313 0.03721 0.16743 0.03514 0.32453 0.10749z"/>
   <path d="m63.605 29.878q-0.30592 0-0.48369 0.23978-0.17777 0.23771-0.17777 0.65319t0.1757 0.65526q0.17777 0.23771 0.48576 0.23771 0.30386 0 0.48162-0.23978 0.17777-0.23978 0.17777-0.65319 0-0.41134-0.17777-0.65112-0.17777-0.24185-0.48162-0.24185zm0-0.32246q0.49609 0 0.77928 0.32246 0.28319 0.32246 0.28319 0.89297 0 0.56844-0.28319 0.89297-0.28319 0.32246-0.77928 0.32246-0.49816 0-0.78135-0.32246-0.28112-0.32453-0.28112-0.89297 0-0.57051 0.28112-0.89297 0.28319-0.32246 0.78135-0.32246z"/>
   <path d="m67.101 30.056q0.14263-0.25632 0.34106-0.37827 0.19844-0.12196 0.46716-0.12196 0.36173 0 0.5581 0.25425 0.19637 0.25218 0.19637 0.71934v1.3973h-0.3824v-1.3849q0-0.3328-0.11782-0.49403-0.11782-0.16123-0.35967-0.16123-0.29559 0-0.46716 0.19637-0.17156 0.19637-0.17156 0.53537v1.3084h-0.38241v-1.3849q0-0.33486-0.11782-0.49403-0.11782-0.16123-0.3638-0.16123-0.29146 0-0.46302 0.19844-0.17157 0.19637-0.17157 0.5333v1.3084h-0.3824v-2.3151h0.3824v0.35967q0.13022-0.21291 0.31213-0.31419 0.1819-0.10128 0.43201-0.10128 0.25218 0 0.42788 0.12816 0.17777 0.12816 0.26252 0.37207z"/>
  </g>
 </g>
</svg>
 
