<?xml version="1.0" encoding="UTF-8" standalone="no"?>
<svg
   xmlns:dc="http://purl.org/dc/elements/1.1/"
   xmlns:cc="http://creativecommons.org/ns#"
   xmlns:rdf="http://www.w3.org/1999/02/22-rdf-syntax-ns#"
   xmlns:svg="http://www.w3.org/2000/svg"
   xmlns="http://www.w3.org/2000/svg"
   xmlns:xlink="http://www.w3.org/1999/xlink"
   xmlns:sodipodi="http://sodipodi.sourceforge.net/DTD/sodipodi-0.dtd"
   xmlns:inkscape="http://www.inkscape.org/namespaces/inkscape"
   version="1.0"
   width="3000"
   height="2254"
   id="svg1901"
   sodipodi:docname="Pioneer_10_systems_diagram_1.svg"
   inkscape:version="1.0.1 (3bc2e813f5, 2020-09-07)">
  <metadata
     id="metadata364">
    <rdf:RDF>
      <cc:Work
         rdf:about="">
        <dc:format>image/svg+xml</dc:format>
        <dc:type
           rdf:resource="http://purl.org/dc/dcmitype/StillImage" />
        <dc:title></dc:title>
      </cc:Work>
    </rdf:RDF>
  </metadata>
  <sodipodi:namedview
     pagecolor="#ffffff"
     bordercolor="#666666"
     borderopacity="1"
     objecttolerance="10"
     gridtolerance="10"
     guidetolerance="10"
     inkscape:pageopacity="0"
     inkscape:pageshadow="2"
     inkscape:window-width="1920"
     inkscape:window-height="1055"
     id="namedview362"
     showgrid="false"
     inkscape:zoom="0.37222715"
     inkscape:cx="1500"
     inkscape:cy="1127"
     inkscape:window-x="0"
     inkscape:window-y="25"
     inkscape:window-maximized="1"
     inkscape:current-layer="svg1901" />
  <defs
     id="defs1903">
    <linearGradient
       id="linearGradient3834">
      <stop
         id="stop3836"
         style="stop-color:#dbe2e9;stop-opacity:1"
         offset="0" />
      <stop
         id="stop3842"
         style="stop-color:#ffffff;stop-opacity:1"
         offset="0.33333334" />
      <stop
         id="stop3838"
         style="stop-color:#dbe2e9;stop-opacity:1"
         offset="1" />
    </linearGradient>
    <linearGradient
       id="linearGradient3810">
      <stop
         id="stop3812"
         style="stop-color:#b7c5d0;stop-opacity:1"
         offset="0" />
      <stop
         id="stop3814"
         style="stop-color:#eef2f2;stop-opacity:1"
         offset="1" />
    </linearGradient>
    <radialGradient
       cx="1349.793"
       cy="1035.23"
       r="281.84668"
       fx="1349.793"
       fy="1035.23"
       id="radialGradient3816"
       xlink:href="#linearGradient3810"
       gradientUnits="userSpaceOnUse"
       gradientTransform="matrix(1,0,0,1.5473338,0,-595.75895)" />
    <linearGradient
       x1="1722.7639"
       y1="1151.1"
       x2="1674.0917"
       y2="1239.8534"
       id="linearGradient3840"
       xlink:href="#linearGradient3834"
       gradientUnits="userSpaceOnUse" />
    <style
       type="text/css"
       id="style4902" />
    <radialGradient
       cx="1349.793"
       cy="1035.23"
       r="281.84668"
       fx="1349.793"
       fy="1035.23"
       id="radialGradient7111"
       xlink:href="#linearGradient3810"
       gradientUnits="userSpaceOnUse"
       gradientTransform="matrix(1,0,0,1.5473338,0,-595.75895)" />
    <linearGradient
       x1="1722.7639"
       y1="1151.1"
       x2="1674.0917"
       y2="1239.8534"
       id="linearGradient7121"
       xlink:href="#linearGradient3834"
       gradientUnits="userSpaceOnUse" />
  </defs>
  <path
     d="m 1668.3417,1168.7353 c 14.6804,-10.8712 40.1392,-16.8432 65.5353,-22.8437 33.1028,11.6208 20.6787,77.0127 3.3704,100.3626 -17.8346,22.173 -39.0156,23.5155 -54.3007,16.103 -13.7065,-19.0613 -23.117,-39.7337 -28.8355,-61.7905 l 14.2305,-31.8314 z"
     id="path3832"
     style="fill:url(#linearGradient7121);fill-rule:evenodd;stroke:#000000;stroke-width:5;stroke-linecap:round;stroke-linejoin:bevel" />
  <path
     d="m 1172.1458,792.0009 -71.9016,-295.8451 -14.2305,10.11116 70.4036,290.97677 15.7285,-5.24283 z"
     id="path3818"
     style="fill:#d1ba4b;fill-rule:evenodd;stroke:#000000;stroke-width:2;stroke-linecap:round;stroke-linejoin:bevel" />
  <path
     d="m 1665.6086,1167.5148 c 4.3251,-5.8257 10.4155,1.3241 10.3273,10.3273 -0.9702,14.2881 -8.3413,22.1426 -13.2402,25.1563 -5.3269,1.1639 -12.3312,1.9752 -10.8569,-2.9129 l 13.7698,-32.5707 z"
     id="path3830"
     style="fill:#dbe2ea;fill-rule:evenodd;stroke:#000000;stroke-width:2;stroke-linecap:round;stroke-linejoin:bevel" />
  <path
     d="m 1660.5773,1165.6612 c 4.0378,-4.0369 10.1384,-1.8704 10.8569,9.0033 1.3034,9.8448 -7.2517,24.2082 -13.7697,26.745 -4.8583,2.2192 -10.3005,-0.01 -11.9161,-2.648 l 14.8289,-33.1003 z"
     id="path3828"
     style="fill:#d9e2e9;fill-rule:evenodd;stroke:#000000;stroke-width:2;stroke-linecap:round;stroke-linejoin:bevel" />
  <path
     d="m 1648.3964,1166.9852 c 4.5143,-7.4261 13.279,-6.783 15.8881,0 4.4137,13.0392 -6.2353,30.6129 -12.1809,32.5707 -5.8017,3.242 -15.1176,-2.7124 -11.1217,-11.6513 l 7.4145,-20.9194 z"
     id="path3826"
     style="fill:#dee7f0;fill-rule:evenodd;stroke:#000000;stroke-width:2;stroke-linecap:round;stroke-linejoin:bevel" />
  <path
     d="m 1640.7171,1162.4836 9.0033,1.8536 c 4.4708,1.0976 5.4844,3.6769 5.0312,6.8848 -1.2761,6.1027 -3.4521,12.5497 -6.62,18.5362 -1.997,4.3548 -5.7022,4.1542 -9.7977,2.9129 l -9.2681,-5.0313 11.6513,-25.1562 z"
     id="path3824"
     style="fill:#a7b9c7;fill-rule:evenodd;stroke:#000000;stroke-width:2;stroke-linecap:round;stroke-linejoin:bevel" />
  <path
     d="m 1635.9507,1155.8634 c 14.8854,2.3357 1.5845,39.6255 -13.7697,31.2468 l 13.7697,-31.2468 z"
     id="path3822"
     style="fill:#c9d2dc;fill-rule:evenodd;stroke:#000000;stroke-width:2;stroke-linecap:round;stroke-linejoin:bevel" />
  <path
     d="m 1630.6546,1150.3026 c 15.9446,5.7781 -1.5931,42.8031 -15.3585,37.0724 l 15.3585,-37.0724 z"
     id="path3820"
     style="fill:#c9d2dc;fill-rule:evenodd;stroke:#000000;stroke-width:2;stroke-linecap:round;stroke-linejoin:bevel" />
  <path
     d="m 1115.9692,1221.7617 c -14.5216,157.911 49.0364,267.6261 124.3663,300.3238 l 14.829,-2.1184 3.1776,-50.8421 c 4.9494,-20.1734 37.7972,-32.1115 40.25,-10.5921 l -3.1776,34.9539 c 42.6485,-19.2966 86.7044,-27.3338 131.3421,-30.7171 181.8076,-153.2457 236.7298,-383.8883 244.6776,-513.71707 7.4409,-120.44126 -19.2605,-275.55317 -142.1159,-293.71156 -23.1228,-2.98379 -65.5427,8.52731 -91.9696,20.43524 -14.5251,37.35986 -42.0245,66.65795 -75.204,69.9079 l -246.1755,476.07749 z"
     id="path3800"
     style="fill:url(#radialGradient7111);fill-rule:evenodd;stroke:#000000;stroke-width:5;stroke-linecap:round;stroke-linejoin:bevel" />
  <path
     d="m 1026.0957,1049.6483 -14.9795,82.3872 113.8442,74.8975 167.7704,-106.3544 53.9262,-356.51209 -77.519,-6.74078 -23.5927,63.66287 -92.4984,-14.23052 -76.0209,79.39134 -50.9303,183.49888 z"
     id="path3792"
     style="fill:#b7c5d0;fill-rule:evenodd;stroke:#000000;stroke-width:2;stroke-linecap:round;stroke-linejoin:bevel" />
  <path
     d="m 1085.0938,526.21875 c -0.7245,0.0398 -1.3166,0.59247 -1.4063,1.3125 l -8.8125,55.40625 -28.0938,-52.96875 c -0.3883,-0.73349 -1.2977,-1.01332 -2.0312,-0.625 -0.7335,0.38835 -1.0133,1.29776 -0.625,2.03125 l 30.1875,56.9375 0.062,0 53.5625,222.875 c 0.098,0.55071 0.4974,0.98932 1.0313,1.15625 0.534,0.1669 1.1054,0.0216 1.5,-0.375 0.3946,-0.39657 0.5445,-0.96688 0.375,-1.5 L 1077.2188,587.25 1086.6562,528 c 0.088,-0.45488 -0.038,-0.933 -0.3437,-1.28125 -0.3055,-0.34823 -0.7564,-0.52759 -1.2187,-0.5 z"
     id="path3762"
     style="fill:#ffffff;fill-rule:evenodd;stroke:#000000;stroke-width:2;stroke-linecap:round;stroke-linejoin:bevel" />
  <path
     d="m 1067.6842,534.63651 -1.8536,26.48026 -8.2089,-28.59868 10.0625,2.11842 z"
     id="path3760"
     style="fill:#b7c5d0;fill-rule:evenodd;stroke:#000000;stroke-width:2;stroke-linecap:round;stroke-linejoin:bevel" />
  <path
     d="m 1031.713,510.76081 -39.32119,16.85194 -10.11117,-39.69568 44.18956,-17.97539 5.2428,40.81913 z"
     id="path3758"
     style="fill:#b7c5d0;fill-rule:evenodd;stroke:#000000;stroke-width:2;stroke-linecap:round;stroke-linejoin:bevel" />
  <path
     d="m 998.3836,412.64509 -31.08246,11.9836 9.36219,40.44465 45.31297,-16.10296 -11.2346,-33.32939 -12.3581,-2.9959 z"
     id="path3756"
     style="fill:#b7c5d0;fill-rule:evenodd;stroke:#000000;stroke-width:2;stroke-linecap:round;stroke-linejoin:bevel" />
  <path
     d="m 1093.5034,413.01958 18.7244,7.48975 5.6173,34.07836 -29.959,-8.23873 -9.3622,-5.99179 -7.1152,-22.84374 22.0947,-4.49385 z"
     id="path3754"
     style="fill:#b7c5d0;fill-rule:evenodd;stroke:#000000;stroke-width:2;stroke-linecap:round;stroke-linejoin:bevel" />
  <path
     d="m 1096.8738,505.1435 39.3212,18.34988 -9.7367,-40.44464 -20.2223,-8.61321 -23.2182,8.98769 13.856,21.72028 z"
     id="path3750"
     style="fill:#b7c5d0;fill-rule:evenodd;stroke:#000000;stroke-width:2;stroke-linecap:round;stroke-linejoin:bevel" />
  <path
     d="m 1079.2729,447.09794 46.8109,-18.72437 8.2388,40.44464 -44.5641,16.10296 -10.4856,-37.82323 z"
     id="path3752"
     style="fill:#e3e8ec;fill-rule:evenodd;stroke:#000000;stroke-width:2;stroke-linecap:round;stroke-linejoin:bevel" />
  <path
     d="m 930.97586,1764.9194 204.65744,-530.6488 17.2263,4.6811 -208.40219,537.9513 -13.48155,-11.9836 z"
     id="path3722"
     style="fill:#d1ba4b;fill-rule:evenodd;stroke:#000000;stroke-width:2;stroke-linecap:round;stroke-linejoin:bevel" />
  <path
     d="m 1467.1429,895.07143 5.3571,12.85714 -12.5,7.32143 -4.8214,-12.32143 11.9643,-7.85714 z"
     id="path3317"
     style="fill:none;stroke:#000000;stroke-width:1;stroke-linecap:round" />
  <path
     d="m 1424.2812,892.125 c -0.7477,0.062 -1.3346,0.66695 -1.374,1.41619 -0.039,0.74924 0.4807,1.41239 1.2178,1.55256 l 37.4688,9.875 c 0.8025,0.20711 1.621,-0.27559 1.8281,-1.07813 0.2071,-0.80253 -0.2756,-1.62101 -1.0781,-1.82812 l -37.4688,-9.875 c -0.1917,-0.0604 -0.3937,-0.0817 -0.5938,-0.0625 l 0,0 z"
     id="path3704"
     style="fill:#ecf0f3;fill-rule:evenodd;stroke:#000000;stroke-width:2;stroke-linecap:round;stroke-linejoin:bevel" />
  <path
     d="m 1392.5,1165.7857 4.8214,12.6786 -12.6785,6.9643 -5,-12.3215 12.8571,-7.3214 z"
     id="path3313"
     style="fill:none;stroke:#000000;stroke-width:1;stroke-linecap:round" />
  <path
     d="m 1456.7857,1047.3929 5.1786,13.0357 -13.2143,6.9643 -4.1072,-11.9643 12.1429,-8.0357 z"
     id="path3315"
     style="fill:none;stroke:#000000;stroke-width:1;stroke-linecap:round" />
  <path
     d="m 1317.5,1260.6071 5.3571,12.6786 -13.2142,6.9643 -4.2858,-11.7857 12.1429,-7.8572 z"
     id="path3311"
     style="fill:none;stroke:#000000;stroke-width:1;stroke-linecap:round" />
  <path
     d="m 1262.9375,1248.0938 c -0.7016,0.062 -1.2657,0.6038 -1.3558,1.3023 -0.09,0.6986 0.3179,1.3658 0.9808,1.6039 L 1311,1270.3125 c 0.4978,0.2059 1.0679,0.129 1.4934,-0.2014 0.4255,-0.3304 0.6412,-0.8636 0.565,-1.3969 -0.076,-0.5333 -0.4324,-0.9849 -0.9334,-1.183 l -48.4688,-19.3124 c -0.2256,-0.1002 -0.4725,-0.1431 -0.7187,-0.125 z"
     id="path3678"
     style="fill:#ffffff;fill-rule:evenodd;stroke:#000000;stroke-width:2;stroke-linecap:round;stroke-linejoin:bevel" />
  <path
     d="m 1273.5938,1112.3438 c -0.7811,0.015 -1.42,0.6265 -1.4688,1.4062 l -26.1875,331.625 c -0.1148,0.5695 0.1096,1.1542 0.5759,1.5007 0.4664,0.3465 1.0909,0.3925 1.6031,0.1181 0.5121,-0.2743 0.8198,-0.8198 0.7897,-1.4 L 1275.125,1114 c 0.045,-0.4296 -0.097,-0.8578 -0.3904,-1.1749 -0.2933,-0.3172 -0.709,-0.4926 -1.1408,-0.4813 z"
     id="path3672"
     style="fill:#ffffff;fill-rule:evenodd;stroke:#000000;stroke-width:2;stroke-linecap:round;stroke-linejoin:bevel" />
  <path
     d="m 913.37495,1921.0806 8.05148,-19.6606 -21.72027,-2.8086 -5.9918,14.0433 19.66059,8.4259 z"
     id="path3628"
     style="fill:#b7c5d1;fill-rule:evenodd;stroke:#000000;stroke-width:2;stroke-linecap:round;stroke-linejoin:bevel" />
  <path
     d="m 817.50615,1862.2861 -18.34988,-11.6091 -9.73668,26.5886 23.9672,1.1235 4.11936,-16.103 z"
     id="path3622"
     style="fill:#b7c5d1;fill-rule:evenodd;stroke:#000000;stroke-width:2;stroke-linecap:round;stroke-linejoin:bevel" />
  <path
     d="m 947.99342,1777.8849 -83.14802,222.9638 c -7.76037,8.0207 -91.62803,-15.4758 -89.50329,-40.25 l 84.73684,-215.5494 c 7.90194,-14.0631 93.36109,16.1313 87.91447,32.8356 z"
     id="path3608"
     style="fill:#e3e8ec;fill-rule:evenodd;stroke:#000000;stroke-width:2;stroke-linecap:round;stroke-linejoin:bevel" />
  <path
     d="m 812.73144,1866.2182 c 11.94667,23.7844 70.37533,40.4487 88.6372,36.1381"
     id="path3616"
     style="fill:none;stroke:#000000;stroke-width:2;stroke-linecap:round;stroke-linejoin:bevel" />
  <path
     d="m 860.74095,1744.6521 c -4.08976,13.1521 80.32396,44.7025 87.40759,31.8312"
     id="path3598"
     style="fill:none;stroke:#000000;stroke-width:2;stroke-linecap:round;stroke-linejoin:bevel" />
  <path
     d="m 907.08141,1723.9975 c -2.56644,5.3689 17.66605,12.7159 19.463,8.3413 1.68306,-6.4318 -16.28709,-12.704 -19.463,-8.3413 z"
     id="path3594"
     style="fill:#e3e8ec;fill-rule:evenodd;stroke:#000000;stroke-width:2;stroke-linecap:round;stroke-linejoin:bevel" />
  <path
     d="m 1110,1225.4375 c -0.598,0.041 -1.1141,0.4344 -1.3125,1 l -193.34375,501.125 c -0.30202,0.7767 0.0828,1.6511 0.8594,1.9531 0.77665,0.302 1.65108,-0.083 1.9531,-0.8594 L 1111.4688,1227.5 c 0.1931,-0.4755 0.1297,-1.0166 -0.168,-1.4346 -0.2976,-0.418 -0.7883,-0.6549 -1.3008,-0.6279 z"
     id="path3576"
     style="fill:#ffffff;fill-rule:evenodd;stroke:#000000;stroke-width:2;stroke-linecap:round;stroke-linejoin:bevel" />
  <path
     d="m 855.32939,1757.0551 c 20.25595,19.5309 57.79723,34.8247 88.37904,32.5804"
     id="path3610"
     style="fill:none;stroke:#000000;stroke-width:2;stroke-linecap:round;stroke-linejoin:bevel" />
  <path
     d="m 940.89978,1790.759 20.22232,2.9959 -7.11526,19.4733 -20.03508,-10.6728 6.92802,-11.7964 z"
     id="path3626"
     style="fill:#b7c5d1;fill-rule:evenodd;stroke:#000000;stroke-width:2;stroke-linecap:round;stroke-linejoin:bevel" />
  <path
     d="m 859.07426,1753.3102 -18.34988,-11.9836 -10.48565,25.4652 28.08656,6.3663 0.74897,-19.8479 z"
     id="path3624"
     style="fill:#b7c5d1;fill-rule:evenodd;stroke:#000000;stroke-width:2;stroke-linecap:round;stroke-linejoin:bevel" />
  <path
     d="m 907.21382,1723.9975 -18.80099,23.6999 c 2.86892,5.6488 25.20912,15.9206 36.41036,14.4317 l 1.58882,-29.6579"
     id="path3596"
     style="fill:#e3e8ec;fill-rule:evenodd;stroke:#000000;stroke-width:2;stroke-linecap:round;stroke-linejoin:bevel" />
  <path
     d="m 872.26672,1005.9565 27.27412,-63.63958 46.46702,-3.53553 30.80965,57.07361 -16.16244,130.3097 -103.03556,11.1117 14.64721,-131.3199 z"
     id="path3403"
     style="fill:#97aabb;stroke:#000000;stroke-width:2;stroke-linecap:round;display:inline" />
  <path
     d="m 946.00786,938.78139 -15.65737,129.80461 29.7995,55.5584 16.16245,-129.29955 -30.30458,-56.06346 z"
     id="path3405"
     style="fill:#ecf0f3;stroke:#000000;stroke-width:2;stroke-linecap:round;stroke-linejoin:bevel;display:inline" />
  <path
     d="m 1109.9809,852.29339 -13.6688,-5.9918 0.749,21.72027 13.2943,2.80866 -0.3745,-18.53713 z"
     id="path3562"
     style="fill:#dbe2ea;fill-rule:evenodd;stroke:#000000;stroke-width:1.5;stroke-linecap:round;stroke-linejoin:round" />
  <path
     d="m 1121.7772,838.25011 -13.107,-5.05559 -0.1873,40.44465 12.5454,4.30661 0.7489,-39.69567 z"
     id="path3560"
     style="fill:#dbe2ea;fill-rule:evenodd;stroke:#000000;stroke-width:1.5;stroke-linecap:round;stroke-linejoin:round" />
  <path
     d="m 1134.5098,827.38997 -13.1071,-5.80456 -4.1193,55.79864 12.5453,4.86833 4.6811,-54.86241 z"
     id="path3558"
     style="fill:#dbe2ea;fill-rule:evenodd;stroke:#000000;stroke-width:1.5;stroke-linecap:round;stroke-linejoin:round" />
  <path
     d="m 1147.4296,819.33849 -13.107,-2.80866 -8.9877,62.72665 10.8601,1.6852 11.2346,-61.60319 z"
     id="path3556"
     style="fill:#dbe2ea;fill-rule:evenodd;stroke:#000000;stroke-width:1.5;stroke-linecap:round;stroke-linejoin:round" />
  <path
     d="m 1159.0387,814.09566 -12.3581,-2.05968 -15.1667,67.96948 10.4857,3.37039 17.0391,-69.28019 z"
     id="path3554"
     style="fill:#dbe2ea;fill-rule:evenodd;stroke:#000000;stroke-width:1.5;stroke-linecap:round;stroke-linejoin:round" />
  <path
     d="m 1169.7116,813.15944 -11.2346,-2.62141 -21.1585,71.33987 9.3621,3.74487 23.031,-72.46333 z"
     id="path3552"
     style="fill:#dbe2ea;fill-rule:evenodd;stroke:#000000;stroke-width:1.5;stroke-linecap:round;stroke-linejoin:round" />
  <path
     d="m 1170.4606,810.35079 -26.9631,73.02506 8.2387,3.37038 31.6442,-71.71435 -12.9198,-4.68109 z"
     id="path3550"
     style="fill:#dbe2ea;fill-rule:evenodd;stroke:#000000;stroke-width:1.5;stroke-linecap:round;stroke-linejoin:round" />
  <path
     d="m 1180.01,815.59361 -31.0824,70.2164 8.8004,2.80866 34.4529,-66.65877 -12.1709,-6.36629 z"
     id="path3548"
     style="fill:#dbe2ea;fill-rule:evenodd;stroke:#000000;stroke-width:1.5;stroke-linecap:round;stroke-linejoin:round" />
  <path
     d="m 1202.4793,825.70477 -13.1071,-5.24282 -34.2656,67.40775 11.2346,5.05558 36.1381,-67.22051 z"
     id="path3546"
     style="fill:#dbe2ea;fill-rule:evenodd;stroke:#000000;stroke-width:1.5;stroke-linecap:round;stroke-linejoin:round" />
  <path
     d="m 1158.2898,896.10842 39.8829,-66.65877 12.5453,4.49385 -39.1339,66.47153 -13.2943,-4.30661 z"
     id="path3544"
     style="fill:#dbe2ea;fill-rule:evenodd;stroke:#000000;stroke-width:1.5;stroke-linecap:round;stroke-linejoin:round" />
  <path
     d="m 1161.2857,904.34714 41.0063,-57.85831 20.0351,12.73257 -39.8829,52.05376 -21.1585,-6.92802 z"
     id="path3542"
     style="fill:#dbe2ea;fill-rule:evenodd;stroke:#000000;stroke-width:1.5;stroke-linecap:round;stroke-linejoin:round" />
  <path
     d="m 1225.8847,876.07334 -21.9075,-9.92392 -41.1936,47.18542 18.9116,8.23873 44.1895,-45.50023 z"
     id="path3540"
     style="fill:#dbe2ea;fill-rule:evenodd;stroke:#000000;stroke-width:1.5;stroke-linecap:round;stroke-linejoin:round" />
  <path
     d="m 1227.0082,894.42323 -21.533,-9.36219 -41.1936,38.75945 21.7202,11.60911 41.0064,-41.00637 z"
     id="path3538"
     style="fill:#dbe2ea;fill-rule:evenodd;stroke:#000000;stroke-width:1.5;stroke-linecap:round;stroke-linejoin:round" />
  <path
     d="m 1163.3453,935.99134 39.883,-29.58451 24.1544,9.36218 -42.1298,27.89932 -21.9076,-7.67699 z"
     id="path3536"
     style="fill:#dbe2ea;fill-rule:evenodd;stroke:#000000;stroke-width:1.5;stroke-linecap:round;stroke-linejoin:round" />
  <path
     d="m 1181.508,956.4009 -18.7244,-8.42596 38.5722,-20.22233 23.78,9.17494 -43.6278,19.47335 z"
     id="path3534"
     style="fill:#dbe2ea;fill-rule:evenodd;stroke:#000000;stroke-width:1.5;stroke-linecap:round;stroke-linejoin:round" />
  <path
     d="m 1428.0357,815.25 49.8214,-65 -29.8214,-5.89286 -29.1071,38.21429"
     id="path3319"
     style="fill:none;stroke:#000000;stroke-width:1;stroke-linecap:round" />
  <path
     d="m 1442.9002,1000.9649 -41.9426,26.5886 6.3663,-51.67925 35.5763,25.09065 z"
     id="path3686"
     style="fill:#a6b7c7;fill-rule:evenodd;stroke:#000000;stroke-width:2;stroke-linecap:round;stroke-linejoin:bevel" />
  <path
     d="m 1417.8096,909.58997 32.5804,13.85604 -7.4898,77.51889 -36.3252,-15.35397 11.2346,-76.02096 z"
     id="path3684"
     style="fill:#dbe2ea;fill-rule:evenodd;stroke:#000000;stroke-width:2;stroke-linecap:round;stroke-linejoin:bevel" />
  <path
     d="m 1358.6406,1100.9531 33.3293,14.2305 32.5804,-30.3335 -34.8273,-21.3458 -31.0824,37.4488 z"
     id="path3690"
     style="fill:#a6b7c7;fill-rule:evenodd;stroke:#000000;stroke-width:2;stroke-linecap:round;stroke-linejoin:bevel" />
  <path
     d="m 1350.3125,1109.9062 c -0.5313,0.022 -1.0114,0.323 -1.2619,0.792 -0.2506,0.469 -0.2341,1.0356 0.043,1.4893 L 1385.25,1174 c 0.4228,0.7163 1.3462,0.9541 2.0625,0.5313 0.7163,-0.4228 0.9541,-1.3462 0.5313,-2.0625 l -36.1563,-61.7813 c -0.2727,-0.5005 -0.8055,-0.8032 -1.375,-0.7813 z"
     id="path3698"
     style="fill:#ecf0f3;fill-rule:evenodd;stroke:#000000;stroke-width:2;stroke-linecap:round;stroke-linejoin:bevel" />
  <path
     d="m 1418.5938,1054.125 c -0.8284,-0.017 -1.514,0.6403 -1.5313,1.4687 -0.017,0.8284 0.6403,1.514 1.4687,1.5313 l 33.5313,0.5625 c 0.5393,0.011 1.0428,-0.2688 1.3188,-0.7322 0.276,-0.4633 0.282,-1.0392 0.016,-1.5083 -0.2662,-0.469 -0.7638,-0.759 -1.3032,-0.7595 l -33.5,-0.5625 z"
     id="path3692"
     style="fill:#ecf0f3;fill-rule:evenodd;stroke:#000000;stroke-width:2;stroke-linecap:round;stroke-linejoin:bevel" />
  <path
     d="m 1404.7025,1030.1749 14.605,5.9918 4.8684,49.4324 -36.6998,-16.103 17.2264,-39.3212 z"
     id="path3688"
     style="fill:#c9d3dd;fill-rule:evenodd;stroke:#000000;stroke-width:2;stroke-linecap:round;stroke-linejoin:bevel" />
  <path
     d="M 1328.9286,742.92857 1432.5,780.78571 1403.5714,1055.4286 1292.5,1014 1328.9286,742.92857 z"
     id="path3318"
     style="fill:#e3e8ec;fill-rule:evenodd;stroke:#000000;stroke-width:2;stroke-linecap:round" />
  <path
     d="m 1325.8252,963.53012 -14.1421,-10.48033 12.8794,-10.73287 1.2627,21.2132 z"
     id="path3284"
     style="fill:#dce2ea;stroke:#000000;stroke-width:2" />
  <g
     transform="matrix(0.4729065,0.8811126,-0.8811126,0.4729065,1526.8419,-656.88511)"
     id="g3274">
    <path
       d="M 1330.3374,912.72833 1318.2143,926.5 c -3.8219,5.15546 5.0579,22.00762 16.5115,16.22833 l 11.8597,-14.61036"
       id="path3276"
       style="fill:#dce2ea;stroke:#000000;stroke-width:2" />
    <path
       d="m 1359.4643,905.78571 a 2.94645,5.357182 0 1 1 -5.8929,0 2.94645,5.357182 0 1 1 5.8929,0 z"
       transform="matrix(1.5272599,-1.4401905,1.4425832,1.5247267,-2040.1229,1493.1707)"
       id="path3278"
       style="fill:#dce2ea;stroke:#000000;stroke-width:0.95278627" />
    <path
       d="m 1343.5714,907.39286 -11.4286,7.05356 c -2.0885,5.83853 8.9396,14.89974 12.1429,12.41072 l 7.5,-12.14286"
       id="path3280"
       style="fill:#dce2ea;stroke:#000000;stroke-width:2" />
    <path
       d="m 1359.4643,905.78571 a 2.94645,5.357182 0 1 1 -5.8929,0 2.94645,5.357182 0 1 1 5.8929,0 z"
       transform="matrix(0.7269725,-0.6866666,0.6866666,0.7269725,-260.53466,1184.137)"
       id="path3282"
       style="fill:#dce2ea;stroke:#000000;stroke-width:2" />
  </g>
  <g
     transform="matrix(0.4729065,0.8811126,-0.8811126,0.4729065,1530.7705,-676.52797)"
     id="g3264">
    <path
       d="m 1330.3374,912.72833 -12.1231,13.77167 16.5115,16.22833 11.8597,-14.61036"
       id="path3266"
       style="fill:#dce2ea;stroke:#000000;stroke-width:2" />
    <path
       d="m 1359.4643,905.78571 a 2.94645,5.357182 0 1 1 -5.8929,0 2.94645,5.357182 0 1 1 5.8929,0 z"
       transform="matrix(1.5272599,-1.4401905,1.4425832,1.5247267,-2040.1229,1493.1707)"
       id="path3268"
       style="fill:#dce2ea;stroke:#000000;stroke-width:0.95278627" />
    <path
       d="m 1343.5714,907.39286 -11.4286,7.05356 c -2.0885,5.83853 8.9396,14.89974 12.1429,12.41072 l 7.5,-12.14286"
       id="path3270"
       style="fill:#dce2ea;stroke:#000000;stroke-width:2" />
    <path
       d="m 1359.4643,905.78571 a 2.94645,5.357182 0 1 1 -5.8929,0 2.94645,5.357182 0 1 1 5.8929,0 z"
       transform="matrix(0.7269725,-0.6866666,0.6866666,0.7269725,-260.53466,1184.137)"
       id="path3272"
       style="fill:#dce2ea;stroke:#000000;stroke-width:2" />
  </g>
  <g
     id="g3248">
    <path
       d="m 1330.3374,912.72833 -12.1231,13.77167 16.5115,16.22833 11.8597,-14.61036"
       id="path3246"
       style="fill:#dce2ea;stroke:#000000;stroke-width:2" />
    <path
       d="m 1359.4643,905.78571 a 2.94645,5.357182 0 1 1 -5.8929,0 2.94645,5.357182 0 1 1 5.8929,0 z"
       transform="matrix(1.5272599,-1.4401905,1.4425832,1.5247267,-2040.1229,1493.1707)"
       id="path3244"
       style="fill:#dce2ea;stroke:#000000;stroke-width:0.95278627" />
    <path
       d="m 1343.5714,907.39286 -11.4286,7.05356 c -2.0885,5.83853 8.9396,14.89974 12.1429,12.41072 l 7.5,-12.14286"
       id="path3242"
       style="fill:#dce2ea;stroke:#000000;stroke-width:2" />
    <path
       d="m 1359.4643,905.78571 a 2.94645,5.357182 0 1 1 -5.8929,0 2.94645,5.357182 0 1 1 5.8929,0 z"
       transform="matrix(0.7269725,-0.6866666,0.6866666,0.7269725,-260.53466,1184.137)"
       id="path3240"
       style="fill:#dce2ea;stroke:#000000;stroke-width:2" />
  </g>
  <g
     transform="matrix(0.4263144,0.904575,-0.904575,0.4263144,1601.7423,-660.5985)"
     id="g3254">
    <path
       d="m 1330.3374,912.72833 -16.8312,20.20734 16.5115,16.22833 16.5678,-21.04603"
       id="path3256"
       style="fill:#dce2ea;stroke:#000000;stroke-width:2" />
    <path
       d="m 1359.4643,905.78571 a 2.94645,5.357182 0 1 1 -5.8929,0 2.94645,5.357182 0 1 1 5.8929,0 z"
       transform="matrix(1.5272599,-1.4401905,1.4425832,1.5247267,-2040.1229,1493.1707)"
       id="path3258"
       style="fill:#dce2ea;stroke:#000000;stroke-width:0.95278627" />
    <path
       d="m 1343.5714,907.39286 -11.4286,7.05356 c -2.0885,5.83853 8.9396,14.89974 12.1429,12.41072 l 7.5,-12.14286"
       id="path3260"
       style="fill:#dce2ea;stroke:#000000;stroke-width:2" />
    <path
       d="m 1359.4643,905.78571 a 2.94645,5.357182 0 1 1 -5.8929,0 2.94645,5.357182 0 1 1 5.8929,0 z"
       transform="matrix(0.7269725,-0.6866666,0.6866666,0.7269725,-260.53466,1184.137)"
       id="path3262"
       style="fill:#dce2ea;stroke:#000000;stroke-width:2" />
  </g>
  <path
     d="m 1605.7143,943.64286 55.3571,3.57142 -21.7857,114.64282 -55,-3.2142 21.4286,-115.00004 z"
     id="path3288"
     style="fill:none;stroke:#000000;stroke-width:1;stroke-linecap:round" />
  <path
     d="M 1602.5,828.64285 1652.8571,809.71428 1665,914.35714 1614.6429,934 1602.5,828.64285 z"
     id="path3290"
     style="fill:none;stroke:#000000;stroke-width:1;stroke-linecap:round" />
  <path
     d="m 1582.5,1080.7857 48.2143,22.1429 -40.3572,110 -48.5714,-21.7857 40.7143,-110.3572 z"
     id="path3292"
     style="fill:none;stroke:#000000;stroke-width:1;stroke-linecap:round" />
  <path
     d="m 1470,1234.7143 87.5,47.8571 28.2143,-58.2143 L 1497.1429,1176.5 1470,1234.7143 z"
     id="path3294"
     style="fill:none;stroke:#000000;stroke-width:1;stroke-linecap:round" />
  <path
     d="m 1462.8571,1239.7143 71.0715,67.5 -35.3572,56.7857 -71.0714,-67.1429 35.3571,-57.1428 z"
     id="path3296"
     style="fill:none;stroke:#000000;stroke-width:1;stroke-linecap:round" />
  <path
     d="m 1373.9286,1177.9286 70.7143,83.2143 -44.6429,47.1428 -70.7143,-83.5714 44.6429,-46.7857 z"
     id="path3298"
     style="fill:none;stroke:#000000;stroke-width:1;stroke-linecap:round" />
  <path
     d="m 1335.3571,1408.6429 27.8572,56.4285 85,-47.5 -28.9286,-56.0714 -83.9286,47.1429 z"
     id="path3300"
     style="fill:none;stroke:#000000;stroke-width:1;stroke-linecap:round" />
  <path
     d="m 1295.7143,1314.3571 43.9286,27.8572 -10.3572,109.6428 -43.9286,-27.5 10.3572,-110 z"
     id="path3302"
     style="fill:none;stroke:#000000;stroke-width:1;stroke-linecap:round" />
  <path
     d="m 1286.739,1313.2875 -26.9631,-2.247 -18.3499,14.2306 -35.2018,-79.0169 71.9015,54.6752 8.6133,12.3581 z"
     id="path3670"
     style="fill:#a6b7c7;fill-rule:evenodd;stroke:#000000;stroke-width:2;stroke-linecap:round;stroke-linejoin:bevel" />
  <path
     d="m 1473.5714,666.85714 33.9286,-1.42857 -56.0714,65.35714 -33.5715,1.78572 55.7143,-65.71429 z"
     id="path3304"
     style="fill:none;stroke:#000000;stroke-width:1;stroke-linecap:round" />
  <path
     d="m 1525.7143,662.57143 33.5714,10 -72.5,68.57142 -33.2143,-8.92857 72.1429,-69.64285 z"
     id="path3306"
     style="fill:none;stroke:#000000;stroke-width:1;stroke-linecap:round" />
  <path
     d="m 1573.2143,678.28571 30,21.42857 -83.5714,63.21429 -30,-20.71429 83.5714,-63.92857 z"
     id="path3308"
     style="fill:none;stroke:#000000;stroke-width:1;stroke-linecap:round" />
  <path
     d="m 1340.9775,754.42855 82.3274,33.33503 -26.2639,246.98232 -87.3782,-32.3249 31.3147,-247.99245 z m 2.0203,-6.56599 79.8021,33.33503 c 7.1154,2.41366 7.8326,5.62063 7.5761,9.09137 l -26.264,245.46704 c -0.3956,5.7534 -2.9788,8.5472 -9.0913,6.566 l -86.8732,-32.3249 c -5.3055,-1.8967 -5.8649,-5.5731 -5.0507,-11.61671 l 31.3147,-243.95184 c 0.6404,-6.46122 3.5688,-8.52231 8.5863,-6.56599 z"
     id="path3309"
     style="fill:#e3e8ec;fill-rule:evenodd;stroke:#000000;stroke-width:2;stroke-linecap:round" />
  <path
     d="m 1251.1413,1447.1973 a 4.28575,4.28575 0 1 1 -8.5715,0 4.28575,4.28575 0 1 1 8.5715,0 z"
     id="path3509"
     style="fill:#ecf0f3;stroke:#000000;stroke-width:2;stroke-linecap:round" />
  <path
     d="m 1367.1429,792.57143 22.8571,9.28571 39.8214,-33.57143 c 7.4745,-6.60518 4.5736,-12.13262 -13.2143,-11.25 l -49.4642,0.89286 c 3.493,2.38724 3.8037,5.83529 3.0357,9.64286 l -3.0357,25 z"
     id="path3382"
     style="fill:#e3e8ec;stroke:#000000;stroke-width:2;stroke-linecap:round" />
  <path
     d="m 1415.7143,763.64285 -48.0357,28.57143"
     id="path3384"
     style="fill:none;stroke:#000000;stroke-width:2;stroke-linecap:round" />
  <path
     d="m 1031.713,1063.8788 -15.354,-6.7408 10.4857,-8.9877 13.4815,6.7408 -8.6132,8.9877 z"
     id="path3530"
     style="fill:#dbe2ea;fill-rule:evenodd;stroke:#000000;stroke-width:2;stroke-linecap:round;stroke-linejoin:round" />
  <path
     d="m 1030.964,1083.3522 -14.2305,-6.3663 21.7203,-22.0948 11.6091,6.3663 -19.0989,22.0948 z"
     id="path3528"
     style="fill:#dbe2ea;fill-rule:evenodd;stroke:#000000;stroke-width:2;stroke-linecap:round;stroke-linejoin:round" />
  <path
     d="m 1032.462,1099.8296 -13.1071,-4.8683 27.3376,-35.2019 11.2346,4.1194 -25.4651,35.9508 z"
     id="path3526"
     style="fill:#dbe2ea;fill-rule:evenodd;stroke:#000000;stroke-width:2;stroke-linecap:round;stroke-linejoin:round" />
  <path
     d="m 1036.9558,1115.1836 -12.7326,-5.2428 29.959,-47.1855 10.4857,2.9959 -27.7121,49.4324 z"
     id="path3524"
     style="fill:#dbe2ea;fill-rule:evenodd;stroke:#000000;stroke-width:2;stroke-linecap:round;stroke-linejoin:round" />
  <path
     d="m 1039.5772,1127.1672 -10.1111,-4.4939 32.5804,-57.671 7.4897,3.3704 -29.959,58.7945 z"
     id="path3522"
     style="fill:#dbe2ea;fill-rule:evenodd;stroke:#000000;stroke-width:2;stroke-linecap:round;stroke-linejoin:round" />
  <path
     d="m 1071.0157,1060.2907 a 4.28575,4.28575 0 1 1 -8.5715,0 4.28575,4.28575 0 1 1 8.5715,0 z"
     id="path3352"
     style="fill:#ecf0f3;stroke:#000000;stroke-width:2;stroke-linecap:round" />
  <path
     d="m 1159.0387,974.75079 34.4529,-1.12346 20.5968,8.9877 -34.4529,1.12346 -20.5968,-8.9877 z"
     id="path3490"
     style="fill:#dbe2ea;fill-rule:evenodd;stroke:#000000;stroke-width:2;stroke-linecap:round;stroke-linejoin:round" />
  <path
     d="m 1155.6683,988.98131 28.4611,7.11527 23.2182,9.73672 -26.5886,-7.11531 -25.0907,-9.73668 z"
     id="path3492"
     style="fill:#dbe2ea;fill-rule:evenodd;stroke:#000000;stroke-width:2;stroke-linecap:round;stroke-linejoin:round" />
  <path
     d="m 1150.4255,1002.4629 25.0907,16.8519 22.8437,9.3622 -28.0865,-19.4734 -19.8479,-6.7407 z"
     id="path3494"
     style="fill:#dbe2ea;fill-rule:evenodd;stroke:#000000;stroke-width:2;stroke-linecap:round;stroke-linejoin:round" />
  <path
     d="m 1144.4337,1014.8209 20.9713,7.4898 23.9672,29.21 -22.0947,-9.3622 -22.8438,-27.3376 z"
     id="path3496"
     style="fill:#dbe2ea;fill-rule:evenodd;stroke:#000000;stroke-width:2;stroke-linecap:round;stroke-linejoin:round" />
  <path
     d="m 1037.7048,1132.0355 29.959,-64.7863 9.3622,3.7449 -25.4652,70.4036 -13.856,-9.3622 z"
     id="path3520"
     style="fill:#dbe2ea;fill-rule:evenodd;stroke:#000000;stroke-width:2;stroke-linecap:round;stroke-linejoin:round" />
  <path
     d="m 1047.067,1139.1508 26.5886,-69.2802 8.6132,4.8683 -22.0948,68.9057 -13.107,-4.4938 z"
     id="path3518"
     style="fill:#dbe2ea;fill-rule:evenodd;stroke:#000000;stroke-width:2;stroke-linecap:round;stroke-linejoin:round" />
  <path
     d="m 1078.8984,1072.1175 -22.8437,70.7782 22.8437,9.7366 15.354,-73.774 -15.354,-6.7408 z"
     id="path3516"
     style="fill:#dbe2ea;fill-rule:evenodd;stroke:#000000;stroke-width:2;stroke-linecap:round;stroke-linejoin:round" />
  <path
     d="m 1067.6638,1143.2702 22.0947,10.1111 13.1071,-74.523 -16.8519,-6.7408 -18.3499,71.1527 z"
     id="path3514"
     style="fill:#dbe2ea;fill-rule:evenodd;stroke:#000000;stroke-width:2;stroke-linecap:round;stroke-linejoin:round" />
  <path
     d="m 1093.1289,1070.2451 -13.4815,70.0292 22.4692,10.1111 9.7367,-71.5271 -18.7244,-8.6132 z"
     id="path3512"
     style="fill:#dbe2ea;fill-rule:evenodd;stroke:#000000;stroke-width:2;stroke-linecap:round;stroke-linejoin:round" />
  <path
     d="m 1115.2237,1144.0191 -23.2182,-10.8601 8.2387,-67.0333 20.5968,9.7367 -5.6173,68.1567 z"
     id="path3510"
     style="fill:#dbe2ea;fill-rule:evenodd;stroke:#000000;stroke-width:2;stroke-linecap:round;stroke-linejoin:round" />
  <path
     d="m 1106.985,1062.0064 -1.1235,64.4118 22.4693,9.3622 -1.1235,-67.0333 -20.2223,-6.7407 z"
     id="path3508"
     style="fill:#dbe2ea;fill-rule:evenodd;stroke:#000000;stroke-width:2;stroke-linecap:round;stroke-linejoin:round" />
  <path
     d="m 1114.4747,1054.1421 19.4734,9.3622 7.1152,60.2925 -24.7161,-11.2346 -1.8725,-58.4201 z"
     id="path3506"
     style="fill:#dbe2ea;fill-rule:evenodd;stroke:#000000;stroke-width:2;stroke-linecap:round;stroke-linejoin:round" />
  <path
     d="m 1153.7959,1108.0683 -9.3622,-53.5517 -22.8437,-8.9877 9.3622,53.5517 22.8437,8.9877 z"
     id="path3502"
     style="fill:#dbe2ea;fill-rule:evenodd;stroke:#000000;stroke-width:2;stroke-linecap:round;stroke-linejoin:round" />
  <path
     d="m 1130.5777,1036.9157 13.107,44.564 23.2183,9.7367 -17.6009,-46.4365 -18.7244,-7.8642 z"
     id="path3500"
     style="fill:#dbe2ea;fill-rule:evenodd;stroke:#000000;stroke-width:2;stroke-linecap:round;stroke-linejoin:round" />
  <path
     d="m 1137.6929,1026.4301 21.3458,8.2387 19.0989,36.6998 -21.3458,-8.2388 -19.0989,-36.6997 z"
     id="path3498"
     style="fill:#dbe2ea;fill-rule:evenodd;stroke:#000000;stroke-width:2;stroke-linecap:round;stroke-linejoin:round" />
  <path
     d="m 1219.3312,959.3968 -36.3253,10.86014 -21.7202,-9.36219 37.8232,-10.48565 20.2223,8.9877 z"
     id="path3532"
     style="fill:#dbe2ea;fill-rule:evenodd;stroke:#000000;stroke-width:1.5;stroke-linecap:round;stroke-linejoin:round" />
  <path
     d="m 1014.6562,1042.25 c -0.3364,0.052 -0.645,0.2178 -0.875,0.4688 l -56.4687,57.375 c -0.48872,0.497 -0.57073,1.2651 -0.19796,1.8541 0.37278,0.589 1.10212,0.8436 1.76046,0.6146 l 56.375,-19.3125 c 0.7853,-0.2761 1.198,-1.1366 0.9219,-1.9219 -0.2761,-0.7853 -1.1366,-1.198 -1.9219,-0.9219 l -50.375,17.25 52.0625,-52.8437 c 0.4738,-0.455 0.5965,-1.1654 0.3027,-1.7529 -0.2938,-0.5876 -0.9357,-0.9157 -1.584,-0.8096 z"
     id="path3568"
     style="fill:#ffffff;fill-rule:evenodd;stroke:#000000;stroke-width:2;stroke-linecap:round;stroke-linejoin:round" />
  <path
     d="m 1176.5782,806.37262 c -21.2478,-8.09187 -47.7578,4.08055 -73.1215,29.53835 -25.3639,25.45773 -49.8694,64.30002 -67.722,110.56748 -17.8526,46.26747 -25.7246,91.33585 -23.989,127.11405 1.7355,35.778 13.2259,62.5308 34.4737,70.6227 21.2478,8.0918 47.7943,-4.1752 73.158,-29.633 25.3639,-25.4577 49.7658,-64.231 67.6184,-110.4984 17.8526,-46.26749 25.8282,-91.40492 24.0926,-127.18306 -1.7354,-35.77806 -13.2624,-62.43624 -34.5102,-70.52812 z m -2.5546,6.62066 c 19.205,7.31393 29.9945,31.69852 31.6569,65.97015 1.6626,34.27172 -5.9573,78.1908 -23.376,123.33377 -17.4187,45.1429 -41.3019,82.8684 -65.5979,107.2542 -24.2958,24.3859 -48.7275,35.3571 -67.9325,28.0431 -19.2051,-7.3139 -30.0615,-31.724 -31.7241,-65.9957 -1.6626,-34.2717 5.9575,-78.19072 23.3762,-123.33366 17.4187,-45.14294 41.3017,-82.86848 65.5977,-107.25429 24.296,-24.3858 48.7946,-35.33151 67.9997,-28.01757 z"
     id="path3483"
     style="fill:#fdfdfb;fill-rule:evenodd;stroke:#000000;stroke-width:3;stroke-linecap:round;stroke-linejoin:round" />
  <path
     d="m 1093.6349,861.66776 c -33.6811,-6.67283 -57.9937,34.66849 -80.5,85.26645 -9.4993,43.23632 -17.38669,85.47209 13.2401,103.80259 41.4005,9.0553 73.455,-21.3502 102.2138,-65.67101 1.6435,-45.45349 16.9013,-95.33161 -34.9539,-123.39803 z"
     id="path3364"
     style="fill:#a6b7c7;fill-rule:evenodd;stroke:#000000;stroke-width:1;stroke-linecap:round" />
  <path
     d="m 1221.7993,865.375 -17.2121,-6.35527 -4.2369,-20.9194 17.2122,6.35526 4.2368,20.91941 z"
     id="path3427"
     style="fill:#d1d8de;fill-rule:evenodd;stroke:#000000;stroke-width:1;stroke-linecap:round;stroke-linejoin:bevel" />
  <path
     d="m 1231.75,830.5 c -0.1391,0.0122 -0.2758,0.0438 -0.4062,0.0937 l -112,40.25 c -0.5558,0.13632 -0.9856,0.57694 -1.108,1.13592 -0.1225,0.55897 0.084,1.13893 0.5316,1.49512 0.4478,0.3562 1.0593,0.42659 1.5764,0.18146 l 112.0312,-40.25 c 0.7052,-0.25549 1.1133,-0.99255 0.9556,-1.72584 -0.1577,-0.73329 -0.8327,-1.23741 -1.5806,-1.18041 z"
     id="path3391"
     style="fill:#fefefc;fill-rule:evenodd;stroke:#000000;stroke-width:2;stroke-linecap:round;stroke-linejoin:bevel" />
  <path
     d="m 1101.8438,864.84539 c 27.977,71.7597 -6.3792,161.74571 -66.2007,189.86351 l 45.8108,17.7418 c 66.1604,-7.6319 109.7084,-167.34566 61.9639,-190.65794 l -41.574,-16.94737 z"
     id="path3362"
     style="fill:#e3e8ec;fill-rule:evenodd;stroke:#000000;stroke-width:3;stroke-linecap:round" />
  <path
     d="m 1066.6562,1060.5 c -0.4161,0.073 -0.7822,0.3181 -1.0082,0.675 -0.2261,0.3569 -0.2911,0.7926 -0.1792,1.2 l 35,135.2812 c 0.2071,0.8025 1.0256,1.2852 1.8281,1.0781 0.8025,-0.2071 1.2852,-1.0256 1.0781,-1.8281 l -35,-135.2812 c -0.186,-0.77 -0.9387,-1.2626 -1.7188,-1.125 z"
     id="path3343"
     style="fill:#ecf0f3;fill-rule:evenodd;stroke:#000000;stroke-width:2;stroke-linecap:round" />
  <path
     d="m 1106.8779,1200.2612 a 4.285715,4.285715 0 1 1 -8.5714,0 4.285715,4.285715 0 1 1 8.5714,0 z"
     id="path3350"
     style="fill:#ecf0f3;stroke:#000000;stroke-width:2;stroke-linecap:round" />
  <path
     d="m 1007.1429,387.92857 -40.35718,-18.57143 8.57142,39.28571 41.42856,19.64286 -9.6428,-40.35714 z"
     id="path3396"
     style="fill:#e3e8ec;stroke:#000000;stroke-width:2;stroke-linecap:round" />
  <path
     d="m 1067.1546,379.72697 c -6.203,-30.22894 -65.9742,-31.08933 -66.2007,9.5329 l 28.5987,118.63157 63.5527,-15.88815 -25.9507,-112.27632 z"
     id="path3740"
     style="fill:#e3e9ed;fill-rule:evenodd;stroke:#000000;stroke-width:2;stroke-linecap:round;stroke-linejoin:bevel" />
  <path
     d="M 1022.5,450.78571 981.07143,431.5 l 9.64286,40.71428 40.71431,18.57143 -8.9286,-40 z"
     id="path3398"
     style="fill:#e3e8ec;stroke:#000000;stroke-width:2;stroke-linecap:round" />
  <path
     d="m 1109.6064,365.08518 -41.5681,17.22643 7.8642,40.07016 43.815,-16.85194 -10.1111,-40.44465 z"
     id="path3748"
     style="fill:#e3e8ec;fill-rule:evenodd;stroke:#000000;stroke-width:2;stroke-linecap:round;stroke-linejoin:bevel" />
  <path
     d="m 1052.0938,404.03125 c -0.3465,0.0129 -0.6778,0.14541 -0.9376,0.375 L 980.84375,465.375 c -0.4266,0.37161 -0.60785,0.95161 -0.46875,1.5 l 92.3438,395.65625 c 0.077,0.56522 0.4686,1.03765 1.0096,1.21894 0.5409,0.18129 1.1378,0.0401 1.5402,-0.36436 0.4023,-0.40444 0.5405,-1.0021 0.3564,-1.54208 L 983.5,467.0625 l 68.75,-59.65625 90.3438,58.84375 c 0.241,0.15991 0.5232,0.24673 0.8124,0.25 l 11.3438,0.0625 91.0312,299.6875 c 0.2416,0.79391 1.0811,1.24162 1.875,1 0.7939,-0.24162 1.2416,-1.08109 1,-1.875 l -91.3437,-300.75 c -0.1928,-0.63215 -0.7766,-1.06365 -1.4375,-1.0625 l -12,-0.0625 -90.9062,-59.21875 c -0.2587,-0.17192 -0.5645,-0.25928 -0.875,-0.25 l 0,0 z"
     id="path3443"
     style="fill:#ffffff;fill-rule:evenodd;stroke:#000000;stroke-width:2;stroke-linecap:round;stroke-linejoin:round" />
  <path
     d="m 1096.4978,503.78295 a 34.157869,31.630077 0 1 1 -68.315,0 34.157869,31.630077 0 1 1 68.315,0 z"
     id="path3738"
     style="fill:#e3e9ed;fill-rule:evenodd;stroke:#000000;stroke-width:1.99999964;stroke-linecap:round;stroke-linejoin:bevel" />
  <path
     d="m 1096.4977,507.62123 a 32.75354,27.791579 0 1 1 -65.5064,0 32.75354,27.791579 0 1 1 65.5064,0 z"
     id="path3736"
     style="fill:#e3e9ed;fill-rule:evenodd;stroke:#000000;stroke-width:1.99999988;stroke-linecap:round;stroke-linejoin:bevel" />
  <path
     d="m 1090.1305,509.86862 a 25.357412,21.612538 0 1 1 -50.7144,0 25.357412,21.612538 0 1 1 50.7144,0 z"
     id="path3734"
     style="fill:#e3e9ed;fill-rule:evenodd;stroke:#000000;stroke-width:2;stroke-linecap:round;stroke-linejoin:bevel" />
  <path
     d="m 1001.8438,981.8125 -32.4688,11.375 -2.75,0.9375 2.375,1.6875 33.2188,23.5 1.7187,-2.4687 -30.8125,-21.81255 29.6875,-10.375 -0.9687,-2.84375 z"
     id="path3489"
     style="fill:#ecf0f3;stroke:#000000;stroke-width:2;stroke-linejoin:bevel" />
  <path
     d="m 1000.75,1003.25 -61.375,62 1.5625,2.4688 70.9687,-24.75 -1,-2.8126 -64.81245,22.625 56.78125,-57.4062 -2.125,-2.125 z"
     id="path3495"
     style="fill:#ecf0f3;stroke:#000000;stroke-width:2" />
  <path
     d="m 1016.0312,935.78125 -64.18745,21.8125 -2.84375,0.9375 2.46875,1.71875 50.71875,35 1.6875,-2.5 L 955.65625,959.4375 1017,938.625 l -0.9688,-2.84375 z"
     id="path3436"
     style="fill:#ecf0f3;stroke:#000000;stroke-width:2;stroke-linejoin:bevel" />
  <path
     d="m 858.62966,1133.2358 25.75889,-60.1041 45.96194,-4.5457 30.54486,57.3139 -102.26569,11.8815"
     id="path3409"
     style="fill:#b7c5d0;stroke:#000000;stroke-width:2;stroke-linecap:round;stroke-linejoin:bevel;display:inline" />
  <path
     d="m 873.27688,1006.4616 25.25381,-2.0203"
     id="path3411"
     style="fill:none;stroke:#000000;stroke-width:2;stroke-linecap:round;display:inline" />
  <path
     d="m 899.46725,942.0864 -15.58377,131.0453 45.96194,-4.5457 16.66752,-129.29954 -47.04569,2.79994 z"
     id="path3407"
     style="fill:#dbe2ea;stroke:#000000;stroke-width:2;stroke-linecap:round;stroke-linejoin:bevel;display:inline" />
  <path
     d="m 935.90634,1057.4743 4.36711,7.8593 -0.60968,10.9024 -4.76759,-9.1958 1.01016,-9.5659 z"
     id="path3418"
     style="fill:none;stroke:#000000;stroke-width:1;stroke-linecap:round" />
  <path
     d="m 953.33147,1092.4419 4.72425,7.5634 -0.96682,11.2596 -4.76759,-8.8387 1.01016,-9.9843 z"
     id="path3420"
     style="fill:none;stroke:#000000;stroke-width:1;stroke-linecap:round" />
  <path
     d="m 966.46345,986.88104 4.21917,6.92309 -1.04078,10.35397 -4.18855,-7.2928 1.01016,-9.98426 z"
     id="path3422"
     style="fill:none;stroke:#000000;stroke-width:1;stroke-linecap:round" />
  <path
     d="m 949.29086,952.41856 4.39774,7.63737 -0.86221,9.28253 -4.54569,-7.8285 1.01016,-9.0914 z"
     id="path3424"
     style="fill:none;stroke:#000000;stroke-width:1;stroke-linecap:round" />
  <path
     d="m 957.36481,960.09311 a 3.928575,3.928575 0 1 1 -7.85715,0 3.928575,3.928575 0 1 1 7.85715,0 z"
     id="path3428"
     style="fill:#ecf0f3;stroke:#000000;stroke-width:1.00000012;stroke-linecap:round" />
  <path
     d="m 974.30743,995.01914 a 3.928575,3.928575 0 1 1 -7.85715,0 3.928575,3.928575 0 1 1 7.85715,0 z"
     id="path3430"
     style="fill:#ecf0f3;stroke:#000000;stroke-width:1.00000012;stroke-linecap:round" />
  <path
     d="m 944.10716,1065.9643 a 4.285715,4.285715 0 1 1 -8.57143,0 4.285715,4.285715 0 1 1 8.57143,0 z"
     id="path3432"
     style="fill:#ecf0f3;stroke:#000000;stroke-width:1;stroke-linecap:round" />
  <path
     d="m 961.9643,1101.3214 a 4.285715,4.285715 0 1 1 -8.57143,0 4.285715,4.285715 0 1 1 8.57143,0 z"
     id="path3434"
     style="fill:#ecf0f3;stroke:#000000;stroke-width:1;stroke-linecap:round" />
  <path
     d="m 1087.4552,901.58893 a 3.3145781,2.7147971 0 0 1 -6.6291,0 3.3145781,2.7147971 0 1 1 6.6291,0 z"
     id="path3458"
     style="fill:#e2e1dd;stroke:#000000;stroke-width:2" />
  <path
     d="m 1283.6494,679.74829 15.8221,7.02163 26.5886,-17.9754 -20.5968,-9.17494 -21.8139,20.12871 z"
     id="path3469"
     style="fill:#cad4de;fill-rule:evenodd;stroke:#000000;stroke-width:2;stroke-linecap:round;stroke-linejoin:round" />
  <path
     d="m 1403.1891,726.35362 -32.3059,5.29605 -20.9194,-19.33059 32.8355,-15.35856 20.3898,29.3931 z"
     id="path3475"
     style="fill:#b7c5d0;fill-rule:evenodd;stroke:#000000;stroke-width:2;stroke-linecap:round;stroke-linejoin:round" />
  <path
     d="m 1349.4342,712.05427 1.324,-19.06579 30.9819,-4.76644 23.3027,18.80098 -1.324,19.5954 -25.1563,-19.8602 -29.1283,5.29605 z"
     id="path3471"
     style="fill:#dbe2ea;fill-rule:evenodd;stroke:#000000;stroke-width:2;stroke-linecap:round;stroke-linejoin:round" />
  <path
     d="m 1360.5559,690.34046 -29.393,40.25 -33.8948,-37.07237 -0.2648,-9.00329 22.773,-14.82895 41.574,16.15296 -0.7944,4.50165 z"
     id="path3457"
     style="fill:#b7c5d0;fill-rule:evenodd;stroke:#000000;stroke-width:2;stroke-linecap:round;stroke-linejoin:round" />
  <path
     d="m 1152.6875,785.5 c -0.7355,0.12222 -1.2696,0.76603 -1.2539,1.51143 0.016,0.7454 0.5764,1.36616 1.3164,1.45732 l 78.375,10.34375 c 0.5445,0.10298 1.1015,-0.10264 1.4485,-0.53476 0.347,-0.43212 0.4274,-1.02034 0.2093,-1.52979 -0.2182,-0.50944 -0.6994,-0.85712 -1.2516,-0.9042 L 1153.1562,785.5 c -0.1553,-0.0246 -0.3134,-0.0246 -0.4687,0 z"
     id="path3794"
     style="fill:#fafafa;fill-rule:evenodd;stroke:#000000;stroke-width:2;stroke-linecap:round;stroke-linejoin:bevel" />
  <path
     d="m 1315.7812,701 c -0.1852,0.0187 -0.3654,0.0717 -0.5312,0.15625 l -162.125,83.15625 -0.4375,0.3125 L 1086.5,857.5 c -0.4192,0.38554 -0.584,0.97524 -0.4253,1.52224 0.1588,0.54699 0.6135,0.95693 1.174,1.05821 0.5605,0.10127 1.13,-0.12358 1.4701,-0.58045 l 66.0312,-72.6875 161.875,-82.96875 c 0.6712,-0.31528 1.0113,-1.07364 0.8004,-1.78455 -0.211,-0.7109 -0.9097,-1.16102 -1.6442,-1.0592 z"
     id="path3435"
     style="fill:#fafafa;fill-rule:evenodd;stroke:#000000;stroke-width:2;stroke-linecap:round;stroke-linejoin:bevel" />
  <path
     d="m 1093.3403,859.24661 c -13.3778,-5.08633 -28.8967,2.24509 -43.094,16.71131 -14.1973,14.46619 -27.4993,36.41339 -36.8543,62.68145 -9.355,26.26807 -13.0041,51.91848 -11.268,72.44263 1.7359,20.5242 8.9542,36.5004 22.332,41.5867 13.3778,5.0863 28.8967,-2.2451 43.0939,-16.7114 14.1974,-14.4661 27.4816,-36.45319 36.8367,-62.72122 9.3549,-26.26807 13.0217,-51.87864 11.2857,-72.4028 -1.736,-20.52413 -8.9542,-36.50032 -22.332,-41.58667 z m -2.0367,5.71892 c 10.2114,3.88247 16.8645,17.05596 18.4995,36.38595 1.6349,19.32997 -1.8357,44.25328 -10.9297,69.78848 -9.094,25.53515 -22.0861,46.83834 -35.4573,60.46284 -13.3713,13.6245 -26.712,19.2294 -36.9234,15.347 -10.2115,-3.8825 -16.8541,-17.0852 -18.4891,-36.4152 -1.635,-19.32993 1.8356,-44.25324 10.9296,-69.78843 9.0941,-25.53516 22.0862,-46.83832 35.4574,-60.46287 13.3713,-13.62452 26.7015,-19.20023 36.913,-15.31777 z"
     id="path3476"
     style="fill:#dae1e9;stroke:#000000;stroke-width:3" />
  <path
     d="m 1238.7089,919.55778 a 3.9143502,7.8287004 20.302953 0 1 -7.3423,-2.71644 3.9143502,7.8287004 20.302953 1 1 7.3423,2.71644 z"
     id="path3474"
     style="fill:#000000;stroke:none" />
  <path
     d="m 1070.2812,855.0625 -1.0624,2.78125 167.1874,62.40625 1.0626,-2.8125 -167.1876,-62.375 z"
     id="path3468"
     style="fill:#fefefc;stroke:#000000;stroke-width:2" />
  <path
     d="m 1060.5357,862.75 c 0.6963,2.04949 2.9324,4.29489 7.6786,-1.60715 4.0299,-5.15325 4.441,-8.81519 4.1071,-14.10714 0.1132,-4.98151 -3.5489,-3.17574 -4.8214,-1.25 l -6.9643,16.96429 z"
     id="path3466"
     style="fill:#dbe2ea;stroke:#000000;stroke-width:1" />
  <path
     d="m 1056.6071,860.60714 c 1.6403,6.25075 7.9271,1.56993 11.0715,-3.21429 2.1421,-5.01948 2.5367,-10.01824 1.7857,-12.14285 -1.3337,-3.54566 -3.4288,-3.95136 -5.8929,-1.42857 l -6.9643,16.78571 z"
     id="path3464"
     style="fill:#cdd6df;stroke:#000000;stroke-width:1" />
  <path
     d="m 1040.2232,839.58035 -2.8125,7.23214 19.375,13.79465 c 5.4611,-2.34029 9.6247,-10.11416 6.7857,-16.78571 l -23.3482,-4.24108 z"
     id="path3462"
     style="fill:#dbe2ea;stroke:#000000;stroke-width:2" />
  <path
     d="m 1039.6202,843.46835 a 1.3073444,4.3570187 20.847371 1 1 -2.4547,-0.90097 1.3073444,4.3570187 20.847371 1 1 2.4547,0.90097 z"
     id="path3460"
     style="fill:#dbe2ea;stroke:#000000;stroke-width:1" />
  <path
     d="m 959.14893,987.59785 c -1.54398,0.96145 -3.97577,-0.95005 -5.42811,-4.26674 -1.45234,-3.3167 -1.37797,-6.78882 0.166,-7.75027 l 4.68461,-2.4737 5.04147,12.06889 -4.46397,2.42182 z"
     id="path3484"
     style="fill:#dee3e9;stroke:#000000;stroke-width:2" />
  <path
     d="m 963.95778,977.34758 a 6.5819287,3.2496227 69.05652 1 1 -5.5941,3.48353 6.5819287,3.2496227 69.05652 0 1 5.5941,-3.48353 z"
     id="path3482"
     style="fill:#d9e0e8;stroke:#000000;stroke-width:2" />
  <path
     d="m 1392.0576,1174.9612 a 4.28575,4.28575 0 1 1 -8.5715,0 4.28575,4.28575 0 1 1 8.5715,0 z"
     id="path3501"
     style="fill:#ecf0f3;stroke:#000000;stroke-width:2;stroke-linecap:round" />
  <path
     d="m 1457.0576,1056.3897 a 4.28575,4.28575 0 1 1 -8.5715,0 4.28575,4.28575 0 1 1 8.5715,0 z"
     id="path3503"
     style="fill:#ecf0f3;stroke:#000000;stroke-width:2;stroke-linecap:round" />
  <path
     d="m 1467.0576,904.24687 a 4.28575,4.28575 0 1 1 -8.5715,0 4.28575,4.28575 0 1 1 8.5715,0 z"
     id="path3505"
     style="fill:#ecf0f3;stroke:#000000;stroke-width:2;stroke-linecap:round" />
  <path
     d="m 1316.8012,1270.4206 a 4.285715,4.285715 0 1 1 -8.5714,0 4.285715,4.285715 0 1 1 8.5714,0 z"
     id="path3507"
     style="fill:#ecf0f3;stroke:#000000;stroke-width:2;stroke-linecap:round" />
  <path
     d="m 1110.875,980.96875 c -0.7219,0.0108 -1.3337,0.53415 -1.4561,1.24563 -0.1224,0.71148 0.2793,1.40924 0.9561,1.66062 l 98.1562,38.3438 c 0.7767,0.302 1.6512,-0.083 1.9532,-0.8594 0.302,-0.7767 -0.083,-1.6512 -0.8594,-1.9532 l -98.1562,-38.31245 c -0.1874,-0.0817 -0.3894,-0.12422 -0.5938,-0.125 z"
     id="path3356"
     style="fill:#ecf0f3;fill-rule:evenodd;stroke:#000000;stroke-width:2;stroke-linecap:round" />
  <path
     d="m 1207.5,991.5 0.3571,34.6429 3.9286,29.6428 8.2143,24.6429 14.6429,-1.7857 -7.8572,-23.5715 -2.8571,-26.4285 0,-35.71433 L 1207.5,991.5 z"
     id="path3527"
     style="fill:#dce2ea;stroke:#000000;stroke-width:2" />
  <path
     d="m 1258.9286,962.21428 -51.4286,28.92858 16.4286,4.28571 38.9285,-22.14286 -3.9285,-11.07143 z"
     id="path3519"
     style="fill:#cad3de;stroke:#000000;stroke-width:2" />
  <path
     d="m 1258.5714,981.85714 -50.7143,44.28576 16.4286,4.2857 38.5714,-34.28574 -4.2857,-14.28572 z"
     id="path3521"
     style="fill:#cad3dd;stroke:#000000;stroke-width:2" />
  <path
     d="m 1261.0714,1000.4286 -49.6428,55.3571 16.0714,3.2143 38.9286,-44.6429 -5.3572,-13.9285 z"
     id="path3523"
     style="fill:#c9d3dd;stroke:#000000;stroke-width:2" />
  <path
     d="m 1258.9286,962.21428 16.4285,3.92858 -0.3571,18.21428 2.5,18.21426 2.8571,16.4286 -15.7142,-3.5714 -3.5715,-16.07146 -1.7857,-18.21428 -0.3571,-18.92858 z"
     id="path3513"
     style="fill:#dbe2e9;stroke:#000000;stroke-width:2" />
  <path
     d="M 1258.9286,980.78571 1274.6429,984"
     id="path3515"
     style="fill:none;stroke:#000000;stroke-width:2" />
  <path
     d="m 1261.0714,998.28571 16.0715,3.57139"
     id="path3517"
     style="fill:none;stroke:#000000;stroke-width:2" />
  <path
     d="m 1264.2857,1015.7857 -43.9286,64.2857 16.4286,3.9286 43.9286,-64.6429 -16.4286,-3.5714 z"
     id="path3525"
     style="fill:#c9d3dd;stroke:#000000;stroke-width:2" />
  <path
     d="m 1346.7857,991.14286 57.8572,15.00004 c 8.0722,1.5008 20.3703,11.766 2.5,15.7142 l -47.1429,10.7143 -24.2857,-7.4999 c 15.0311,-5.9149 11.7115,-19.7172 11.0714,-33.92864 z"
     id="path2259"
     style="fill:#e3e8ec;stroke:#000000;stroke-width:2" />
  <path
     d="m 1395.7143,1016.1429 -58.5715,9.2857"
     id="path3232"
     style="fill:none;stroke:#000000;stroke-width:2" />
  <path
     d="m 1348.75,757.21428 -7.3214,1.96429 -1.7857,19.82143 15.8928,6.25 7.5,-2.85714"
     id="path3236"
     style="fill:#fdfffe;stroke:#000000;stroke-width:1" />
  <path
     d="m 1348.9286,757.21428 15.7143,6.07143 -1.7858,19.28572 -16.4285,-6.07143 2.5,-19.28572 z"
     id="path3234"
     style="fill:#fdfffe;stroke:#000000;stroke-width:1" />
  <path
     d="m 1346.25,776.14286 -6.7857,2.67857"
     id="path3238"
     style="fill:none;stroke:#000000;stroke-width:1" />
  <path
     d="m 2320.8255,401.63277 c -13.0286,9.35662 6.0097,20.32679 17.9302,8.5863 l -17.9302,-8.5863 z"
     id="path3305"
     style="fill:#e1d355;stroke:#000000;stroke-width:2;stroke-linecap:round" />
  <path
     d="m 2321.3438,408.75 c -0.3189,0.0471 -0.6262,0.15306 -0.9063,0.3125 l -916.7813,491.59375 c -1.2685,0.68174 -1.7442,2.26275 -1.0625,3.53128 0.6818,1.26852 2.2628,1.74421 3.5313,1.06247 l 916.7812,-491.59375 c 1.1666,-0.56231 1.7416,-1.89738 1.3486,-3.13137 -0.3929,-1.23399 -1.6341,-1.99072 -2.911,-1.77488 l 0,0 z"
     id="path3286"
     style="fill:#e1d355;stroke:#000000;stroke-width:2;stroke-linecap:round" />
  <path
     d="m 2020.0526,570.32824 2.3991,4.29315 c 1.6347,7.99459 -4.396,6.48204 -12.6269,6.81853 -2.0281,-0.98277 -2.9802,-2.42667 -2.6517,-4.41942 4.9882,-5.89022 6.0816,-10.81882 12.8795,-6.69226 z"
     id="path3293"
     style="fill:#e1d355;stroke:#000000;stroke-width:2;stroke-linecap:round" />
  <path
     d="m 2011.34,572.09601 c -0.2574,4.00335 2.4976,6.50954 4.5457,8.20749"
     id="path3295"
     style="fill:none;stroke:#000000;stroke-width:2;stroke-linecap:round" />
  <path
     d="m 1585.6869,802.28452 c 0.372,2.79425 -0.065,3.75365 3.2831,5.55585 -2.0058,5.98377 -8.0204,5.95675 -11.7431,6.06091 -2.6627,0.34276 -4.3891,-3.02786 -3.6618,-5.05077 3.3605,-3.85603 6.8502,-8.12477 12.1218,-6.56599 z"
     id="path3297"
     style="fill:#e1d355;stroke:#000000;stroke-width:2;stroke-linecap:round" />
  <path
     d="m 2370.0704,387.49064 20.2031,19.19289 c 0.8605,6.45035 -1.0399,11.89674 -7.5762,15.65737 l -27.5266,-4.04061"
     id="path3303"
     style="fill:#e1d355;stroke:#000000;stroke-width:2;stroke-linecap:round" />
  <path
     d="m 2321.25,367.92857 49.1071,19.28571 c 3.9778,6.06302 -0.582,32.78895 -16.0714,30.71429 l -45.3571,-20.89286"
     id="path3301"
     style="fill:#e1d355;stroke:#000000;stroke-width:2;stroke-linecap:round" />
  <path
     d="m 2324.19,386.54295 a 9.2857314,15.892888 24.108891 1 1 -16.9515,-7.5859 9.2857314,15.892888 24.108891 1 1 16.9515,7.5859 z"
     id="path3299"
     style="fill:#e1d355;stroke:#000000;stroke-width:2;stroke-linecap:round" />
  <path
     d="M 1412.1429,894.53571 1390,886.14286 l -3.75,26.42857 23.0357,8.39285"
     id="path3307"
     style="fill:none;stroke:#000000;stroke-width:1.5;stroke-linecap:round" />
  <path
     d="m 1232.8128,1094.9613 59.5435,-80.8893 111.2228,41.1936 0,7.4897 -75.272,74.1486 -95.4943,-34.8274 0,-7.1152 z"
     id="path3630"
     style="fill:#a6b7c7;fill-rule:evenodd;stroke:#000000;stroke-width:2;stroke-linecap:round;stroke-linejoin:bevel" />
  <path
     d="m 1267.4889,1084.7485 -3.3203,-14.2303 c -1.2881,-4.5123 2.7529,-9.6266 9.0203,-11.4157 6.2672,-1.7891 12.3992,0.4211 13.6873,4.9334 l 3.0886,14.1465"
     id="path3322"
     style="fill:#cad4de;fill-rule:evenodd;stroke:#000000;stroke-width:2;stroke-linecap:round" />
  <path
     d="m 1263.0478,1111.668 -6.1995,-11.458 c -1.542,-2.8499 0.2038,-6.9081 4.1256,-9.1878 3.9218,-2.2797 8.9689,-0.275 10.6134,2.517 l 5.7812,10.4174"
     id="path3327"
     style="fill:#cad4de;fill-rule:evenodd;stroke:#000000;stroke-width:1.99999988;stroke-linecap:round" />
  <path
     d="m 1289.3551,1101.9796 -1.9846,-7.7586 c -0.8197,-3.2043 1.9302,-6.7853 6.3789,-8.0591 4.4487,-1.2739 8.812,0.2688 9.7396,3.4436 l 1.8681,7.9659"
     id="path3332"
     style="fill:#cad4de;fill-rule:evenodd;stroke:#000000;stroke-width:1.99999988;stroke-linecap:round" />
  <path
     d="m 1343.6451,1050.6764 a 11.25,14.107142 83.011657 1 1 -28.0045,3.4328 11.25,14.107142 83.011657 1 1 28.0045,-3.4328 z"
     id="path3341"
     style="fill:#c9d3dd;fill-rule:evenodd;stroke:#000000;stroke-width:2;stroke-linecap:round" />
  <path
     d="m 1344.538,1054.605 a 11.25,14.107142 83.011657 1 1 -28.0046,3.4328 11.25,14.107142 83.011657 1 1 28.0046,-3.4328 z"
     id="path3339"
     style="fill:#c9d3dd;fill-rule:evenodd;stroke:#000000;stroke-width:2;stroke-linecap:round" />
  <path
     d="m 1345.2523,1058.5336 a 11.25,14.107142 83.011657 1 1 -28.0046,3.4327 11.25,14.107142 83.011657 1 1 28.0046,-3.4327 z"
     id="path3337"
     style="fill:#c9d3dd;fill-rule:evenodd;stroke:#000000;stroke-width:2;stroke-linecap:round" />
  <path
     d="m 1289.9067,1077.673 a 8.501179,11.807379 74.067626 1 1 -22.7076,6.4823 8.501179,11.807379 74.067626 1 1 22.7076,-6.4823 z"
     id="path3320"
     style="fill:#cad4de;fill-rule:evenodd;stroke:#000000;stroke-width:2;stroke-linecap:round" />
  <path
     d="m 1305.2568,1096.9291 a 5.991667,8.383325 74.342018 1 1 -16.1186,4.6155 5.991667,8.383325 74.342018 1 1 16.1186,-4.6155 z"
     id="path3330"
     style="fill:#cad4de;fill-rule:evenodd;stroke:#000000;stroke-width:1.99999988;stroke-linecap:round" />
  <path
     d="m 1112.8353,980.9999 a 4.285715,4.285715 0 1 1 -8.5714,0 4.285715,4.285715 0 1 1 8.5714,0 z"
     id="path3354"
     style="fill:#ecf0f3;stroke:#000000;stroke-width:2;stroke-linecap:round" />
  <path
     d="m 1057.0921,1035.9079 c -0.4428,-59.47133 17.3949,-105.2323 50.8421,-139.28619"
     id="path3366"
     style="fill:none;stroke:#000000;stroke-width:3;stroke-linecap:round" />
  <path
     d="m 1293.5734,835.34782 10.392,1.40434 c 3.5654,1.35947 3.7643,13.58003 -4.3066,13.10706 l -8.8941,-5.24283"
     id="path3370"
     style="fill:#b7c5d0;fill-rule:evenodd;stroke:#000000;stroke-width:2;stroke-linecap:round" />
  <path
     d="m 1295.479,841.00075 a 3.2456727,4.7704022 17.159654 0 1 -6.2024,-1.91515 3.2456727,4.7704022 17.159654 1 1 6.2024,1.91515 z"
     id="path3368"
     style="fill:#b7c5d0;fill-rule:evenodd;stroke:#000000;stroke-width:2;stroke-linecap:round" />
  <path
     d="m 1307.7103,736.48313 -45.313,-8.51959 11.9836,10.48565 33.7038,6.74078 -0.3744,-8.70684 z"
     id="path3378"
     style="fill:#cad4dd;fill-rule:evenodd;stroke:#000000;stroke-width:2;stroke-linecap:round;stroke-linejoin:bevel" />
  <path
     d="m 1237.8221,796.69727 a 4.285715,4.285715 0 1 1 -8.5714,0 4.285715,4.285715 0 1 1 8.5714,0 z"
     id="path3389"
     style="fill:#ecf0f3;stroke:#000000;stroke-width:2;stroke-linecap:round" />
  <path
     d="m 1274.7554,738.07471 -14.9795,28.83553 -11.9836,36.69977 -2.247,25.09067 -14.0432,5.61731 2.4341,-39.13394 13.4816,-38.38497 15.354,-28.46105 11.9836,9.73668 z"
     id="path3387"
     style="fill:#e2e8ed;fill-rule:evenodd;stroke:#000000;stroke-width:2;stroke-linecap:round" />
  <path
     d="m 1247.0433,756.79908 53.1772,-1.49795 0.3745,10.48565 -41.1936,1.12346 -12.3581,-10.11116 z"
     id="path3380"
     style="fill:#c9d3dd;fill-rule:evenodd;stroke:#000000;stroke-width:2;stroke-linecap:round;stroke-linejoin:bevel" />
  <path
     d="m 1247.0433,805.10796 -12.7326,-9.73667 57.6711,-16.10296 -3.7449,15.35399 -41.1936,10.48564 z"
     id="path3383"
     style="fill:#c9d3dd;fill-rule:evenodd;stroke:#000000;stroke-width:2;stroke-linecap:round;stroke-linejoin:bevel" />
  <path
     d="m 1308.0847,736.95124 12.7326,10.11117 -8.6132,17.60091 -10.1112,25.46515 -7.9966,27.11822 -12.2257,-10.26629 8.2387,-26.9631 9.3622,-24.71617 8.6132,-18.34989 z"
     id="path3372"
     style="fill:#e3e8ec;fill-rule:evenodd;stroke:#000000;stroke-width:2;stroke-linecap:round;stroke-linejoin:bevel" />
  <path
     d="m 1282.2451,806.9804 -51.6793,27.33759 13.1071,11.60911 50.6655,-28.6577 -12.0933,-10.289 z"
     id="path3385"
     style="fill:#c9d3dd;fill-rule:evenodd;stroke:#000000;stroke-width:2;stroke-linecap:round;stroke-linejoin:bevel" />
  <path
     d="m 1299.846,754.92664 11.6091,10.11116"
     id="path3374"
     style="fill:none;stroke:#000000;stroke-width:2;stroke-linecap:round" />
  <path
     d="m 1290.4838,780.0173 11.2347,9.36219"
     id="path3376"
     style="fill:none;stroke:#000000;stroke-width:2;stroke-linecap:round" />
  <path
     d="m 1166.4556,1041.9984 15.8882,5.8256 -8.2089,18.0066 -15.8882,-6.8849 8.2089,-16.9473 z"
     id="path3410"
     style="fill:#d1d8de;fill-rule:evenodd;stroke:#000000;stroke-width:1;stroke-linecap:round;stroke-linejoin:bevel" />
  <path
     d="m 1175.0295,1054.9024 a 5.5592403,3.2359219 19.345136 1 1 -10.5259,-3.578 5.5592403,3.2359219 19.345136 1 1 10.5259,3.578 z"
     id="path3401"
     style="fill:none;stroke:#000000;stroke-width:0.99999994;stroke-linecap:round;stroke-linejoin:bevel" />
  <path
     d="m 1156.1283,1061.8586 15.3585,7.1496 -12.4457,20.125 -15.8881,-7.1496 12.9753,-20.125 z"
     id="path3412"
     style="fill:#d1d8de;fill-rule:evenodd;stroke:#000000;stroke-width:1;stroke-linecap:round;stroke-linejoin:bevel" />
  <path
     d="m 1162.3234,1077.3446 a 5.3442412,3.3184149 22.926764 1 1 -10.0052,-3.7109 5.3442412,3.3184149 22.926764 1 1 10.0052,3.7109 z"
     id="path3404"
     style="fill:none;stroke:#000000;stroke-width:0.99999994;stroke-linecap:round;stroke-linejoin:bevel" />
  <path
     d="m 1130.4424,1097.6069 14.829,6.6201 -14.829,15.3585 -14.2993,-6.62 14.2993,-15.3586 z"
     id="path3414"
     style="fill:#d1d8de;fill-rule:evenodd;stroke:#000000;stroke-width:1;stroke-linecap:round;stroke-linejoin:bevel" />
  <path
     d="m 1135.8086,1109.6318 a 5.3442414,3.3184148 13.841817 1 1 -10.4657,-2.0845 5.3442414,3.3184148 13.841817 1 1 10.4657,2.0845 z"
     id="path3406"
     style="fill:none;stroke:#000000;stroke-width:0.99999994;stroke-linecap:round;stroke-linejoin:bevel" />
  <path
     d="m 1110.3174,1118.7911 13.2402,5.8257 -18.801,15.6233 -12.4457,-6.8848 18.0065,-14.5642 z"
     id="path3416"
     style="fill:#d1d6dc;fill-rule:evenodd;stroke:#000000;stroke-width:1;stroke-linecap:round;stroke-linejoin:bevel" />
  <path
     d="m 1113.0369,1129.8754 a 4.8968697,2.4527559 8.9510517 1 1 -9.6739,-1.5274 4.8968697,2.4527559 8.9510517 1 1 9.6739,1.5274 z"
     id="path3408"
     style="fill:none;stroke:#000000;stroke-width:0.99999994;stroke-linecap:round;stroke-linejoin:bevel" />
  <path
     d="m 1221.2697,935.28289 -17.7417,-7.41447 -4.2369,22.50822 16.9474,7.41448 5.0312,-22.50823 z"
     id="path3433"
     style="fill:#d1d8de;fill-rule:evenodd;stroke:#000000;stroke-width:1;stroke-linecap:round;stroke-linejoin:bevel" />
  <path
     d="m 1214.8601,945.50065 a 5.4984267,3.428282 33.945419 1 1 -9.4224,-5.61992 5.4984267,3.428282 33.945419 1 1 9.4224,5.61992 z"
     id="path3419"
     style="fill:none;stroke:#000000;stroke-width:0.99999994;stroke-linecap:round;stroke-linejoin:bevel" />
  <path
     d="m 1221.5345,931.84046 -16.9473,-6.62007 1.5888,-18.00658 16.9474,6.35527 -1.5889,18.27138 z"
     id="path3431"
     style="fill:#d1d8de;fill-rule:evenodd;stroke:#000000;stroke-width:1;stroke-linecap:round;stroke-linejoin:bevel" />
  <path
     d="m 1218.0145,921.44181 a 5.6055102,3.4500125 32.756888 1 1 -9.6407,-5.69613 5.6055102,3.4500125 32.756888 1 1 9.6407,5.69613 z"
     id="path3421"
     style="fill:none;stroke:#000000;stroke-width:0.99999988;stroke-linecap:round;stroke-linejoin:bevel" />
  <path
     d="m 1221.7993,869.08223 -16.1529,-6.09046 1.8536,23.56744 16.4178,6.62006 -2.1185,-24.09704 z"
     id="path3429"
     style="fill:#d1d8de;fill-rule:evenodd;stroke:#000000;stroke-width:1;stroke-linecap:round;stroke-linejoin:bevel" />
  <path
     d="m 1220.1329,881.45661 a 5.6055102,3.4500125 32.756888 1 1 -9.6407,-5.69613 5.6055102,3.4500125 32.756888 1 1 9.6407,5.69613 z"
     id="path3423"
     style="fill:none;stroke:#000000;stroke-width:0.99999988;stroke-linecap:round;stroke-linejoin:bevel" />
  <path
     d="m 1216.9425,853.41125 a 5.710326,3.4751053 25.591564 1 1 -10.4097,-4.68434 5.710326,3.4751053 25.591564 1 1 10.4097,4.68434 z"
     id="path3425"
     style="fill:none;stroke:#000000;stroke-width:0.99999988;stroke-linecap:round;stroke-linejoin:bevel" />
  <path
     d="M 1138.4419,804.35899 1066.9148,515.25466"
     id="path3441"
     style="fill:#fafafa;fill-rule:evenodd;stroke:#000000;stroke-width:1;stroke-linecap:round;stroke-linejoin:bevel" />
  <path
     d="m 1158.0321,467.87351 a 4.28575,4.28575 0 1 1 -8.5715,0 4.28575,4.28575 0 1 1 8.5715,0 z"
     id="path3449"
     style="fill:#ffffff;stroke:#000000;stroke-width:2;stroke-linecap:round" />
  <path
     d="m 985.88814,465.22549 a 4.285715,4.285715 0 1 1 -8.57143,0 4.285715,4.285715 0 1 1 8.57143,0 z"
     id="path3399"
     style="fill:#ffffff;stroke:#000000;stroke-width:2;stroke-linecap:round" />
  <path
     d="m 1148.102,464.43108 a 4.28575,4.28575 0 1 1 -8.5715,0 4.28575,4.28575 0 1 1 8.5715,0 z"
     id="path3397"
     style="fill:#ffffff;stroke:#000000;stroke-width:2;stroke-linecap:round" />
  <path
     d="m 1365.0576,667.03783 -56.6678,-21.44902 -23.3026,15.35856 -1.5888,18.80098 23.0378,-15.09375 57.1974,21.97862 1.324,-19.59539 z"
     id="path3453"
     style="fill:#e3e8ec;fill-rule:evenodd;stroke:#000000;stroke-width:2;stroke-linecap:round;stroke-linejoin:round" />
  <path
     d="m 1347.3158,684.25 -15.8882,27.53947"
     id="path3459"
     style="fill:none;stroke:#000000;stroke-width:1;stroke-linecap:round;stroke-linejoin:round" />
  <path
     d="m 1297.2681,688.48684 22.5082,-14.29934 23.8323,9.26809"
     id="path3461"
     style="fill:none;stroke:#000000;stroke-width:1;stroke-linecap:round;stroke-linejoin:round" />
  <path
     d="m 1349.8401,673.8501 18.7244,6.92802 c -0.6156,4.18606 -3.0139,7.48076 -8.6132,9.17495 l -19.0989,-6.92802 c 5.2296,-1.94148 8.7401,-4.74249 8.9877,-9.17495 z"
     id="path3451"
     style="fill:#c9d4dd;fill-rule:evenodd;stroke:#000000;stroke-width:2;stroke-linecap:round;stroke-linejoin:round" />
  <path
     d="m 1308.125,646.11842 -1.5888,18.27138"
     id="path3455"
     style="fill:#c9d4dd;fill-rule:evenodd;stroke:#000000;stroke-width:2;stroke-linecap:round;stroke-linejoin:round" />
  <path
     d="m 1302.829,727.67763 c 1.9942,-13.99015 9.6263,-22.61418 21.7138,-20.65461 l 42.3684,13.50494 c 8.0757,3.72267 7.6682,19.28487 1.9633,29.89057 l -66.0455,-22.7409 z"
     id="path3463"
     style="fill:#dbe2ea;fill-rule:evenodd;stroke:#000000;stroke-width:2;stroke-linecap:round;stroke-linejoin:round" />
  <path
     d="m 1303.4037,727.02733 c -3.636,-1.28186 -6.2781,4.12149 -2.247,6.36628 l 64.9736,23.03098 c 3.7485,1.36435 5.0545,-5.18065 2.0597,-6.36629 l -64.7863,-23.03097 z"
     id="path3465"
     style="fill:#fcfcfc;fill-rule:evenodd;stroke:#000000;stroke-width:2;stroke-linecap:round;stroke-linejoin:round" />
  <path
     d="m 1368.0963,720.98871 c -12.3664,-3.49084 -20.0838,12.57075 -21.2521,21.57985"
     id="path3467"
     style="fill:none;stroke:#000000;stroke-width:2;stroke-linecap:round;stroke-linejoin:round" />
  <path
     d="m 1381.4753,688.75164 -2.3832,18.00658"
     id="path3473"
     style="fill:#dce2ea;fill-rule:evenodd;stroke:#000000;stroke-width:2;stroke-linecap:round;stroke-linejoin:round" />
  <path
     d="m 836.23053,1857.4178 c 16.47426,9.6822 34.33861,15.8892 52.80273,20.5968"
     id="path3612"
     style="fill:none;stroke:#000000;stroke-width:2;stroke-linecap:round;stroke-linejoin:bevel" />
  <path
     d="m 822,1856.6688 c 20.6287,15.6753 45.29858,24.6154 71.9016,30.3335"
     id="path3614"
     style="fill:none;stroke:#000000;stroke-width:2;stroke-linecap:round;stroke-linejoin:bevel" />
  <path
     d="m 838.10296,1860.4137 -55.04965,-10.8602 34.82733,-91.7494 54.67517,10.4856 -34.45285,92.124 z"
     id="path3600"
     style="fill:#d0d9e2;fill-rule:evenodd;stroke:#000000;stroke-width:2;stroke-linecap:round;stroke-linejoin:bevel" />
  <path
     d="m 921.23919,1790.01 47.5599,28.8356 -38.19772,91.3749 -45.68747,-28.461 36.32529,-91.7495 z"
     id="path3604"
     style="fill:#d0d9e2;fill-rule:evenodd;stroke:#000000;stroke-width:2;stroke-linecap:round;stroke-linejoin:bevel" />
  <path
     d="m 1121.625,1227.6875 c -0.5049,0.023 -0.9644,0.2979 -1.2226,0.7324 -0.2581,0.4344 -0.2802,0.9697 -0.059,1.4239 L 1223.125,1457 c 0.1971,0.5263 0.6718,0.8983 1.23,0.9638 0.5581,0.066 1.1061,-0.1864 1.4197,-0.6527 0.3136,-0.4663 0.3403,-1.0689 0.069,-1.5611 l -102.7813,-227.1562 c -0.2454,-0.5705 -0.8169,-0.9309 -1.4375,-0.9063 z"
     id="path3716"
     style="fill:#ecf0f3;fill-rule:evenodd;stroke:#000000;stroke-width:2;stroke-linecap:round;stroke-linejoin:bevel" />
  <path
     d="m 1040.25,1137.0312 c -0.6097,0.029 -1.141,0.4243 -1.3438,1 l -232.0312,601.3126 0.65625,1.8437 14.125,8 27.25,143.75 2.34375,0.9375 120.625,-86.4688 12.71875,5.625 2,-0.8437 215.78125,-541.625 c 0.208,-0.4982 0.1322,-1.0698 -0.1985,-1.4966 -0.3306,-0.4268 -0.8651,-0.643 -1.3995,-0.5661 -0.5344,0.077 -0.9863,0.435 -1.1832,0.9377 l -215.2188,540.2187 -12.0625,-5.3437 -1.5,0.1563 -119.375,85.5937 -26.96875,-142.125 -0.71875,-1 -13.625,-7.75 231.5625,-600.0937 c 0.1904,-0.4702 0.1304,-1.0048 -0.1597,-1.4209 -0.29,-0.4162 -0.7708,-0.6576 -1.2778,-0.6417 z"
     id="path3574"
     style="fill:#ffffff;fill-rule:evenodd;stroke:#000000;stroke-width:2;stroke-linecap:round;stroke-linejoin:bevel" />
  <path
     d="m 1145.9688,1239.4688 c -0.4767,0.028 -0.9114,0.2822 -1.1706,0.6833 -0.2592,0.4011 -0.3119,0.9016 -0.142,1.3479 l 78.25,214.5 c 0.1621,0.5317 0.6049,0.9302 1.1506,1.0355 0.5458,0.1053 1.1051,-0.1 1.4534,-0.5329 0.3483,-0.4331 0.4286,-1.0234 0.2086,-1.5338 l -78.25,-214.5 c -0.2216,-0.6301 -0.8331,-1.0378 -1.5,-1 z"
     id="path3710"
     style="fill:#ecf0f3;fill-rule:evenodd;stroke:#000000;stroke-width:2;stroke-linecap:round;stroke-linejoin:bevel" />
  <path
     d="m 1229.423,1457.8039 a 4.285715,4.285715 0 1 1 -8.5714,0 4.285715,4.285715 0 1 1 8.5714,0 z"
     id="path3511"
     style="fill:#ecf0f3;stroke:#000000;stroke-width:2;stroke-linecap:round" />
  <path
     d="m 1208.9286,1464.8929 46.4285,-19.8215 42.5,17.5 -5.7142,18.9286 -64.4643,-8.2143 -18.75,-8.3928 z"
     id="path3379"
     style="fill:#b8c5d1;stroke:#000000;stroke-width:2;stroke-linecap:round" />
  <path
     d="m 1225,1490.4286 41.7857,-18.5715 30,12.5 -41.7857,18.2143 -30,-12.1428 z"
     id="path3324"
     style="fill:#c9d3dd;stroke:#000000;stroke-width:2;stroke-linecap:round" />
  <path
     d="m 1224.6429,1490.4286 1.4285,-18.9286 41.0715,-17.5 -0.7143,17.8571 0.3571,0 -42.1428,18.5715 z"
     id="path3326"
     style="fill:#e3e8ed;stroke:#000000;stroke-width:2;stroke-linecap:round" />
  <path
     d="m 1267.2692,1454.0217 30.2308,11.764 -0.3815,18.6301 -30.542,-12.5587 0.6927,-17.8354 z"
     id="path3328"
     style="fill:#e3e8ed;stroke:#000000;stroke-width:2;stroke-linecap:round" />
  <path
     d="m 1220.7401,1260.9901 21.1842,64.0823 -79.4407,-74.6744 -59.8454,-23.8322 36.5427,-18.5362 81.5592,52.9605 z"
     id="path3668"
     style="fill:#c9d3dd;fill-rule:evenodd;stroke:#000000;stroke-width:2;stroke-linecap:round;stroke-linejoin:bevel" />
  <path
     d="m 1033.9599,1131.4738 6.7408,6.3663 7.3025,2.9959 -3.7449,8.8004 -7.8642,0.3745 -5.0556,-5.0556 2.6214,-13.4815 z"
     id="path3477"
     style="fill:#ffffff;fill-rule:evenodd;stroke:#000000;stroke-width:1.5;stroke-linecap:round;stroke-linejoin:round" />
  <path
     d="m 1031.3385,1144.7681 8.0515,-0.5617 1.4979,-6.3663"
     id="path3479"
     style="fill:none;stroke:#000000;stroke-width:1;stroke-linecap:round;stroke-linejoin:round" />
  <path
     d="m 1044.0711,1149.4492 -4.6811,-5.0556"
     id="path3481"
     style="fill:none;stroke:#000000;stroke-width:1;stroke-linecap:round;stroke-linejoin:round" />
  <path
     d="m 1134.697,1120.4264 83.5108,34.0784 68.9056,158.7827 -96.9922,-67.4078 -63.2884,-23.5927 7.8642,-101.8606 z"
     id="path3664"
     style="fill:#e3e8ec;fill-rule:evenodd;stroke:#000000;stroke-width:2;stroke-linecap:round;stroke-linejoin:bevel" />
  <path
     d="m 1270.5625,1113.2812 c -0.4499,0.029 -0.8629,0.2582 -1.125,0.625 l -68.3125,89.375 -38.2812,-84.2187 c -0.3452,-0.7594 -1.2406,-1.0952 -2,-0.75 -0.7594,0.3452 -1.0952,1.2406 -0.75,2 l 39.3437,86.5 2.5625,0.2813 69.8125,-91.375 c 0.3707,-0.4614 0.4355,-1.0975 0.1654,-1.6241 -0.27,-0.5267 -0.8244,-0.8453 -1.4154,-0.8135 z"
     id="path3652"
     style="fill:#fefefe;fill-rule:evenodd;stroke:#000000;stroke-width:2;stroke-linecap:round;stroke-linejoin:bevel" />
  <path
     d="m 1204.7897,1203.6903 a 4.28575,4.28575 0 1 1 -8.5715,0 4.28575,4.28575 0 1 1 8.5715,0 z"
     id="path3564"
     style="fill:#ecf0f3;stroke:#000000;stroke-width:2;stroke-linecap:round" />
  <path
     d="m 981.22066,1808.6748 a 4.285715,4.285715 0 1 1 -8.57143,0 4.285715,4.285715 0 1 1 8.57143,0 z"
     id="path3586"
     style="fill:#ecf0f3;stroke:#000000;stroke-width:2;stroke-linecap:round" />
  <path
     d="m 820.56553,1744.6375 a 4.285715,4.285715 0 1 1 -8.57143,0 4.285715,4.285715 0 1 1 8.57143,0 z"
     id="path3588"
     style="fill:#ecf0f3;stroke:#000000;stroke-width:2;stroke-linecap:round" />
  <path
     d="m 889.78224,1785.8907 -34.07836,91.0004 -15.35399,25.8396 34.45285,-92.1239 14.9795,-24.7161 z"
     id="path3590"
     style="fill:#ffffff;fill-rule:evenodd;stroke:#000000;stroke-width:2;stroke-linecap:round;stroke-linejoin:bevel" />
  <path
     d="m 789.64145,1967.4836 c 18.96759,13.5425 37.33858,18.7325 55.60855,22.5082"
     id="path3618"
     style="fill:none;stroke:#000000;stroke-width:2;stroke-linecap:round;stroke-linejoin:bevel" />
  <path
     d="m 848.9631,1895.6155 -13.48155,22.0947 -32.20592,86.1322 13.48155,-22.0948 32.20592,-86.1321 z"
     id="path3592"
     style="fill:#ffffff;fill-rule:evenodd;stroke:#000000;stroke-width:2;stroke-linecap:round;stroke-linejoin:bevel" />
  <path
     d="m 741.85969,1958.9039 55.42414,10.4856 35.57631,-92.8729 -55.79863,-10.1111 -35.20182,92.4984 z"
     id="path3602"
     style="fill:#d0d9e2;fill-rule:evenodd;stroke:#000000;stroke-width:2;stroke-linecap:round;stroke-linejoin:bevel" />
  <path
     d="m 843.72028,1989.9863 45.68747,28.4611 37.82323,-91.375 -46.43644,-28.461 -37.07426,91.3749 z"
     id="path3606"
     style="fill:#d0d9e2;fill-rule:evenodd;stroke:#000000;stroke-width:2;stroke-linecap:round;stroke-linejoin:bevel" />
  <path
     d="m 1403.2046,1062.7553 -111.5973,-41.5681 -58.42,80.8893"
     id="path3632"
     style="fill:none;stroke:#000000;stroke-width:2;stroke-linecap:round;stroke-linejoin:bevel" />
  <path
     d="m 1291.6073,1021.1872 0.749,-7.1152"
     id="path3634"
     style="fill:none;stroke:#000000;stroke-width:2;stroke-linecap:round;stroke-linejoin:bevel" />
  <path
     d="m 1363.1344,1048.5248 -61.0415,75.6465"
     id="path3636"
     style="fill:none;stroke:#000000;stroke-width:1;stroke-linecap:round;stroke-linejoin:bevel" />
  <path
     d="m 1235.0597,1099.8296 95.1198,34.4529"
     id="path3638"
     style="fill:none;stroke:#000000;stroke-width:1;stroke-linecap:round;stroke-linejoin:bevel" />
  <path
     d="m 1268.4385,1053.563 103.8831,40.0234 2.2191,-2.4154 -104.2595,-40.046 -1.8427,2.438 z"
     id="path3646"
     style="fill:#ccd5dc;fill-rule:evenodd;stroke:#000000;stroke-width:2;stroke-linecap:round;stroke-linejoin:bevel" />
  <path
     d="m 1290.6556,1022.8738 36.079,113.6274 2.875,-0.9063 -36.1103,-113.6585 -2.8437,0.9374 z"
     id="path3640"
     style="fill:#ccd5dc;fill-rule:evenodd;stroke:#000000;stroke-width:2;stroke-linecap:round;stroke-linejoin:bevel" />
  <path
     d="m 1277.1186,1103.3145 a 5.8699017,8.2179683 60.174441 1 1 -14.2094,8.2597 5.8699017,8.2179683 60.174441 1 1 14.2094,-8.2597 z"
     id="path3325"
     style="fill:#cad4de;fill-rule:evenodd;stroke:#000000;stroke-width:1.99999988;stroke-linecap:round" />
  <path
     d="m 1217.8333,1155.6282 5.9918,-14.9795 -46.811,-18.3498 -4.8683,13.107 45.6875,20.2223 z"
     id="path3662"
     style="fill:#b7c5d1;fill-rule:evenodd;stroke:#000000;stroke-width:2;stroke-linecap:round;stroke-linejoin:bevel" />
  <path
     d="m 1129.4542,1184.4638 121.334,45.313"
     id="path3666"
     style="fill:none;stroke:#000000;stroke-width:2;stroke-linecap:round;stroke-linejoin:bevel" />
  <path
     d="m 1157.8495,1129.648 53.4619,-76.4128 -2.5517,-20.8151 -63.2235,92.1967 12.3133,5.0312 z"
     id="path3658"
     style="fill:#e2e9ee;fill-rule:evenodd;stroke:#000000;stroke-width:2;stroke-linecap:round;stroke-linejoin:bevel" />
  <path
     d="M 1210.0516,1043.9029 1150.9646,1127"
     id="path3660"
     style="fill:none;stroke:#000000;stroke-width:2;stroke-linecap:round;stroke-linejoin:bevel" />
  <path
     d="m 1104.4643,1166.1428 30.8928,-45.7142 -8.5714,101.7857 -24.2857,5 1.9643,-61.0715 z"
     id="path3390"
     style="fill:#c9d3dd;stroke:#000000;stroke-width:2;stroke-linecap:round;stroke-linejoin:bevel" />
  <path
     d="m 1067.287,514.37909 a 1.9860197,1.9860197 0 1 1 -3.972,0 1.9860197,1.9860197 0 1 1 3.972,0 z"
     id="path3726"
     style="fill:none;stroke:#000000;stroke-width:1;stroke-linecap:round;stroke-linejoin:bevel" />
  <path
     d="m 1068.0814,511.40006 a 1.3902138,1.3902138 0 1 1 -2.7804,0 1.3902138,1.3902138 0 1 1 2.7804,0 z"
     id="path3728"
     style="fill:none;stroke:#000000;stroke-width:1;stroke-linecap:round;stroke-linejoin:bevel" />
  <path
     d="m 1067.287,517.35812 a 1.3902138,1.3902138 0 1 1 -2.7804,0 1.3902138,1.3902138 0 1 1 2.7804,0 z"
     id="path3730"
     style="fill:none;stroke:#000000;stroke-width:1;stroke-linecap:round;stroke-linejoin:bevel" />
  <path
     d="m 1086.3859,512.77072 a 21.612538,18.710259 0 1 1 -43.2247,0 21.612538,18.710259 0 1 1 43.2247,0 z"
     id="path3732"
     style="fill:none;stroke:#000000;stroke-width:1;stroke-linecap:round;stroke-linejoin:bevel" />
  <path
     d="m 1068.4128,384.93302 c -18.7081,-30.45253 -60.6035,-12.55753 -63.2884,4.86834"
     id="path3742"
     style="fill:none;stroke:#000000;stroke-width:2;stroke-linecap:round;stroke-linejoin:bevel" />
  <path
     d="m 1020.4784,451.59179 c 1.7575,-15.89651 44.7219,-32.52594 61.7904,-5.9918"
     id="path3744"
     style="fill:none;stroke:#000000;stroke-width:2;stroke-linecap:round;stroke-linejoin:bevel" />
  <path
     d="m 1048.9286,432.92857 2.5,-38.92857 8.9285,37.5 -0.7142,40.71428 -10.7143,-39.28571 z"
     id="path3394"
     style="fill:#b7c5d2;stroke:#000000;stroke-width:2;stroke-linecap:round" />
  <path
     d="m 1043.9286,407.92857 -9.6429,-38.57143 1.4286,-34.64286 9.6428,34.64286 -1.4285,38.57143 z"
     id="path3400"
     style="fill:#b7c5d0;stroke:#000000;stroke-width:2;stroke-linecap:round" />
  <path
     d="m 1007.3713,387.55443 9.7367,40.07016 -41.56813,-19.47335 -7.86424,-37.82323 39.69567,17.22642 z"
     id="path3746"
     style="fill:#e3e8ec;fill-rule:evenodd;stroke:#000000;stroke-width:2;stroke-linecap:round;stroke-linejoin:bevel" />
  <path
     d="m 1555.8127,773.55754 a 6.3583379,8.5428886 52.054009 1 1 -14.2396,9.36145 6.3583379,8.5428886 52.054009 1 1 14.2396,-9.36145 z"
     id="path3788"
     style="fill:none;stroke:#000000;stroke-width:1;stroke-linecap:round;stroke-linejoin:bevel" />
  <path
     d="m 1555.8853,774.78938 a 5.6902753,7.6352628 51.509479 1 1 -12.6995,8.39583 5.6902753,7.6352628 51.509479 1 1 12.6995,-8.39583 z"
     id="path3790"
     style="fill:none;stroke:#000000;stroke-width:1;stroke-linecap:round;stroke-linejoin:bevel" />
  <path
     d="m 1837.9845,853.41685 -97.3667,0 -77.8934,74.89749"
     id="path3844"
     style="fill:none;stroke:#ea1414;stroke-width:2;stroke-linecap:round;stroke-linejoin:bevel" />
  <path
     d="m 1836.4866,1084.1011 -98.8647,0 -310.0757,-131.81956"
     id="path3846"
     style="fill:none;stroke:#ea1414;stroke-width:2;stroke-linecap:round;stroke-linejoin:bevel" />
  <path
     d="m 1837.9845,1292.3162 -170.7663,0 -301.0879,-323.55721"
     id="path3848"
     style="fill:none;stroke:#ea1414;stroke-width:2;stroke-linecap:round;stroke-linejoin:bevel" />
  <path
     d="m 1840.9804,1382.1932 -133.3175,0 -295.0962,-320.5613"
     id="path3850"
     style="fill:none;stroke:#ea1414;stroke-width:2;stroke-linecap:round;stroke-linejoin:bevel" />
  <path
     d="m 1843.9763,1475.0661 -133.3175,0 -380.4793,-413.4342"
     id="path3852"
     style="fill:none;stroke:#ea1414;stroke-width:2;stroke-linecap:round;stroke-linejoin:bevel" />
  <path
     d="m 1845.4743,1591.9061 -133.3176,0 -437.7758,-478.2204"
     id="path3854"
     style="fill:none;stroke:#ea1414;stroke-width:2;stroke-linecap:round;stroke-linejoin:bevel" />
  <path
     d="m 1105.8158,2112.0658 -76.2632,0 L 885.5,1968.0132"
     id="path3856"
     style="fill:none;stroke:#ea1414;stroke-width:2;stroke-linecap:round;stroke-linejoin:bevel" />
  <path
     d="m 654.59211,883.38158 74.14473,0 146.17106,141.93422"
     id="path3858"
     style="fill:none;stroke:#ea1414;stroke-width:2;stroke-linecap:round;stroke-linejoin:bevel" />
  <path
     d="m 832.53947,432.15789 76.26316,0 372.84207,402.5"
     id="path3860"
     style="fill:none;stroke:#ea1414;stroke-width:2;stroke-linecap:round;stroke-linejoin:bevel" />
  <path
     d="m 1838.7895,133.46053 -105.9211,0 -400.3816,512.65789"
     id="path3862"
     style="fill:none;stroke:#ea1414;stroke-width:2;stroke-linecap:round;stroke-linejoin:bevel" />
  <path
     d="m 1840.9079,243.61842 -67.7895,0 -417.3289,525.36842"
     id="path3864"
     style="fill:none;stroke:#ea1414;stroke-width:2;stroke-linecap:round;stroke-linejoin:bevel" />
  <path
     d="m 1840.9079,332.5921 -40.25,0 -273.2763,349.53948"
     id="path3866"
     style="fill:none;stroke:#ea1414;stroke-width:2;stroke-linecap:round;stroke-linejoin:bevel" />
  <path
     d="m 2506.0921,512.65789 -40.25,0 -80.5,-80.5"
     id="path3868"
     style="fill:none;stroke:#ea1414;stroke-width:2;stroke-linecap:round;stroke-linejoin:bevel" />
  <text
     x="1860.4537"
     y="1301.3038"
     id="text3870"
     xml:space="preserve"
     style="font-size:56px;font-style:normal;font-variant:normal;font-weight:normal;font-stretch:semi-condensed;text-align:start;line-height:125%;writing-mode:lr-tb;text-anchor:start;fill:#000000;stroke:none;font-family:DejaVu Sans;-inkscape-font-specification:DejaVu Sans Semi-Condensed"><tspan
       x="1860.4537"
       y="1301.3038"
       id="tspan3872"
       style="font-size:56px;font-style:normal;font-variant:normal;font-weight:normal;font-stretch:semi-condensed;text-align:start;line-height:125%;writing-mode:lr-tb;text-anchor:start;font-family:DejaVu Sans;-inkscape-font-specification:DejaVu Sans Semi-Condensed">Trapped Radiation Detector</tspan></text>
  <text
     x="1860.4537"
     y="1393.3038"
     id="text3874"
     xml:space="preserve"
     style="font-size:56px;font-style:normal;font-variant:normal;font-weight:normal;font-stretch:semi-condensed;text-align:start;line-height:125%;writing-mode:lr-tb;text-anchor:start;fill:#000000;stroke:none;font-family:DejaVu Sans;-inkscape-font-specification:DejaVu Sans Semi-Condensed"><tspan
       x="1860.4537"
       y="1393.3038"
       id="tspan3876"
       style="font-size:56px;font-style:normal;font-variant:normal;font-weight:normal;font-stretch:semi-condensed;text-align:start;line-height:125%;writing-mode:lr-tb;text-anchor:start;font-family:DejaVu Sans;-inkscape-font-specification:DejaVu Sans Semi-Condensed">Cosmic Ray Telescope</tspan></text>
  <text
     x="1860.4537"
     y="1493.3038"
     id="text3878"
     xml:space="preserve"
     style="font-size:56px;font-style:normal;font-variant:normal;font-weight:normal;font-stretch:semi-condensed;text-align:start;line-height:125%;writing-mode:lr-tb;text-anchor:start;fill:#000000;stroke:none;font-family:DejaVu Sans;-inkscape-font-specification:DejaVu Sans Semi-Condensed"><tspan
       x="1860.4537"
       y="1493.3038"
       id="tspan3880"
       style="font-size:56px;font-style:normal;font-variant:normal;font-weight:normal;font-stretch:semi-condensed;text-align:start;line-height:125%;writing-mode:lr-tb;text-anchor:start;font-family:DejaVu Sans;-inkscape-font-specification:DejaVu Sans Semi-Condensed">Infrared Radiometer</tspan></text>
  <text
     x="1860.4537"
     y="1613.3038"
     id="text3882"
     xml:space="preserve"
     style="font-size:56px;font-style:normal;font-variant:normal;font-weight:normal;font-stretch:semi-condensed;text-align:start;line-height:125%;writing-mode:lr-tb;text-anchor:start;fill:#000000;stroke:none;font-family:DejaVu Sans;-inkscape-font-specification:DejaVu Sans Semi-Condensed"><tspan
       x="1860.4537"
       y="1613.3038"
       id="tspan3884"
       style="font-size:56px;font-style:normal;font-variant:normal;font-weight:normal;font-stretch:semi-condensed;text-align:start;line-height:125%;writing-mode:lr-tb;text-anchor:start;font-family:DejaVu Sans;-inkscape-font-specification:DejaVu Sans Semi-Condensed">Charged Particle Instrument</tspan></text>
  <text
     x="1131.7169"
     y="2132.3169"
     id="text3886"
     xml:space="preserve"
     style="font-size:56px;font-style:normal;font-variant:normal;font-weight:normal;font-stretch:semi-condensed;text-align:start;line-height:125%;writing-mode:lr-tb;text-anchor:start;fill:#000000;stroke:none;font-family:DejaVu Sans;-inkscape-font-specification:DejaVu Sans Semi-Condensed"><tspan
       x="1131.7169"
       y="2132.3169"
       id="tspan3888"
       style="font-size:56px;font-style:normal;font-variant:normal;font-weight:normal;font-stretch:semi-condensed;text-align:start;line-height:125%;writing-mode:lr-tb;text-anchor:start;font-family:DejaVu Sans;-inkscape-font-specification:DejaVu Sans Semi-Condensed">Radioisotope Thermoelectric Generator</tspan></text>
  <text
     x="1860.4537"
     y="1105.3038"
     id="text3890"
     xml:space="preserve"
     style="font-size:56px;font-style:normal;font-variant:normal;font-weight:normal;font-stretch:semi-condensed;text-align:start;line-height:125%;writing-mode:lr-tb;text-anchor:start;fill:#000000;stroke:none;font-family:DejaVu Sans;-inkscape-font-specification:DejaVu Sans Semi-Condensed"><tspan
       x="1860.4537"
       y="1105.3038"
       id="tspan3892"
       style="font-size:56px;font-style:normal;font-variant:normal;font-weight:normal;font-stretch:semi-condensed;text-align:start;line-height:125%;writing-mode:lr-tb;text-anchor:start;font-family:DejaVu Sans;-inkscape-font-specification:DejaVu Sans Semi-Condensed">Plasma Analyzer</tspan></text>
  <text
     x="1860.4537"
     y="869.30377"
     id="text3894"
     xml:space="preserve"
     style="font-size:56px;font-style:normal;font-variant:normal;font-weight:normal;font-stretch:semi-condensed;text-align:start;line-height:125%;writing-mode:lr-tb;text-anchor:start;fill:#000000;stroke:none;font-family:DejaVu Sans;-inkscape-font-specification:DejaVu Sans Semi-Condensed"><tspan
       x="1860.4537"
       y="869.30377"
       id="tspan3896"
       style="font-size:56px;font-style:normal;font-variant:normal;font-weight:normal;font-stretch:semi-condensed;text-align:start;line-height:125%;writing-mode:lr-tb;text-anchor:start;font-family:DejaVu Sans;-inkscape-font-specification:DejaVu Sans Semi-Condensed">Main Antenna</tspan></text>
  <text
     x="1858.2115"
     y="153.30377"
     id="text3898"
     xml:space="preserve"
     style="font-size:56px;font-style:normal;font-variant:normal;font-weight:normal;font-stretch:semi-condensed;text-align:start;line-height:125%;writing-mode:lr-tb;text-anchor:start;fill:#000000;stroke:none;font-family:DejaVu Sans;-inkscape-font-specification:DejaVu Sans Semi-Condensed"><tspan
       x="1858.2115"
       y="153.30377"
       id="tspan3900"
       style="font-size:56px;font-style:normal;font-variant:normal;font-weight:normal;font-stretch:semi-condensed;text-align:start;line-height:125%;writing-mode:lr-tb;text-anchor:start;font-family:DejaVu Sans;-inkscape-font-specification:DejaVu Sans Semi-Condensed">Imaging Photopolarimeter</tspan></text>
  <text
     x="1860.4537"
     y="253.30377"
     id="text3902"
     xml:space="preserve"
     style="font-size:56px;font-style:normal;font-variant:normal;font-weight:normal;font-stretch:semi-condensed;text-align:start;line-height:125%;writing-mode:lr-tb;text-anchor:start;fill:#000000;stroke:none;font-family:DejaVu Sans;-inkscape-font-specification:DejaVu Sans Semi-Condensed"><tspan
       x="1860.4537"
       y="253.30377"
       id="tspan3904"
       style="font-size:56px;font-style:normal;font-variant:normal;font-weight:normal;font-stretch:semi-condensed;text-align:start;line-height:125%;writing-mode:lr-tb;text-anchor:start;font-family:DejaVu Sans;-inkscape-font-specification:DejaVu Sans Semi-Condensed">Geiger Tube Telescope</tspan></text>
  <text
     x="1859.278"
     y="353.30377"
     id="text3906"
     xml:space="preserve"
     style="font-size:56px;font-style:normal;font-variant:normal;font-weight:normal;font-stretch:semi-condensed;text-align:start;line-height:125%;writing-mode:lr-tb;text-anchor:start;fill:#000000;stroke:none;font-family:DejaVu Sans;-inkscape-font-specification:DejaVu Sans Semi-Condensed"><tspan
       x="1859.278"
       y="353.30377"
       id="tspan3908"
       style="font-size:56px;font-style:normal;font-variant:normal;font-weight:normal;font-stretch:semi-condensed;text-align:start;line-height:125%;writing-mode:lr-tb;text-anchor:start;font-family:DejaVu Sans;-inkscape-font-specification:DejaVu Sans Semi-Condensed">Meteoroid Detector Sensor Panel</tspan></text>
  <text
     x="2525.6379"
     y="531.25116"
     id="text3910"
     xml:space="preserve"
     style="font-size:56px;font-style:normal;font-variant:normal;font-weight:normal;font-stretch:semi-condensed;text-align:start;line-height:125%;writing-mode:lr-tb;text-anchor:start;fill:#000000;stroke:none;font-family:DejaVu Sans;-inkscape-font-specification:DejaVu Sans Semi-Condensed"><tspan
       x="2525.6379"
       y="531.25116"
       id="tspan3912"
       style="font-size:56px;font-style:normal;font-variant:normal;font-weight:normal;font-stretch:semi-condensed;text-align:start;line-height:125%;writing-mode:lr-tb;text-anchor:start;font-family:DejaVu Sans;-inkscape-font-specification:DejaVu Sans Semi-Condensed">Helium Vector</tspan><tspan
       x="2525.6379"
       y="601.25116"
       id="tspan3914"
       style="font-size:56px;font-style:normal;font-variant:normal;font-weight:normal;font-stretch:semi-condensed;text-align:start;line-height:125%;writing-mode:lr-tb;text-anchor:start;font-family:DejaVu Sans;-inkscape-font-specification:DejaVu Sans Semi-Condensed">Magnetometer</tspan></text>
  <text
     x="807.03516"
     y="452.89374"
     id="text3916"
     xml:space="preserve"
     style="font-size:56px;font-style:normal;font-variant:normal;font-weight:normal;font-stretch:semi-condensed;text-align:end;line-height:125%;writing-mode:lr-tb;text-anchor:end;fill:#000000;stroke:none;font-family:DejaVu Sans;-inkscape-font-specification:DejaVu Sans Semi-Condensed"><tspan
       x="807.03516"
       y="452.89374"
       id="tspan3918"
       style="font-size:56px;font-style:normal;font-variant:normal;font-weight:normal;font-stretch:semi-condensed;text-align:end;line-height:125%;writing-mode:lr-tb;text-anchor:end;font-family:DejaVu Sans;-inkscape-font-specification:DejaVu Sans Semi-Condensed">Ultraviolet Photometer</tspan></text>
  <text
     x="631.14954"
     y="894.89374"
     id="text3920"
     xml:space="preserve"
     style="font-size:56px;font-style:normal;font-variant:normal;font-weight:normal;font-stretch:semi-condensed;text-align:end;line-height:125%;writing-mode:lr-tb;text-anchor:end;fill:#000000;stroke:none;font-family:DejaVu Sans;-inkscape-font-specification:DejaVu Sans Semi-Condensed"><tspan
       x="631.14954"
       y="894.89374"
       id="tspan3922"
       style="font-size:56px;font-style:normal;font-variant:normal;font-weight:normal;font-stretch:semi-condensed;text-align:end;line-height:125%;writing-mode:lr-tb;text-anchor:end;font-family:DejaVu Sans;-inkscape-font-specification:DejaVu Sans Semi-Condensed">Asteroid–Meteoroid</tspan><tspan
       x="631.14954"
       y="964.89374"
       id="tspan3924"
       style="font-size:56px;font-style:normal;font-variant:normal;font-weight:normal;font-stretch:semi-condensed;text-align:end;line-height:125%;writing-mode:lr-tb;text-anchor:end;font-family:DejaVu Sans;-inkscape-font-specification:DejaVu Sans Semi-Condensed">Detector Sensor</tspan></text>
</svg>
